<svg width="25" height="28" viewBox="0 0 25 28" fill="none" xmlns="http://www.w3.org/2000/svg">
<path d="M10.9762 28.0006C8.72138 28.0006 6.88525 26.1052 6.88525 23.7748C6.88525 23.3083 7.2518 22.9297 7.70344 22.9297C8.15508 22.9297 8.52162 23.3083 8.52162 23.7748C8.52162 25.1734 9.62346 26.3103 10.9762 26.3103C12.3289 26.3103 13.4307 25.1734 13.4307 23.7748C13.4307 23.3083 13.7973 22.9297 14.2489 22.9297C14.7006 22.9297 15.0671 23.3083 15.0671 23.7748C15.0671 26.1052 13.2312 28.0006 10.9762 28.0006Z" fill="black"/>
<path d="M18.6121 12.2237C15.6044 12.2237 13.1575 9.69629 13.1575 6.58949C13.1575 3.48269 15.6044 0.955078 18.6121 0.955078C21.6198 0.955078 24.0665 3.48269 24.0665 6.58949C24.0665 9.69629 21.6198 12.2237 18.6121 12.2237ZM18.6121 2.64538C16.5065 2.64538 14.7938 4.4145 14.7938 6.58949C14.7938 8.76427 16.5065 10.5334 18.6121 10.5334C20.7175 10.5334 22.4302 8.76427 22.4302 6.58949C22.4302 4.4145 20.7175 2.64538 18.6121 2.64538Z" fill="black"/>
<ellipse cx="18.6289" cy="6.67595" rx="4.53148" ry="4.68084" fill="#EE0000"/>
<path d="M19.9755 24.6186H1.97544C0.922744 24.6186 0.0664062 23.734 0.0664062 22.6466C0.0664062 22.0695 0.309704 21.5231 0.733978 21.1478C0.761344 21.123 0.790708 21.1006 0.82127 21.0801C2.42268 19.6366 3.33915 17.5598 3.33915 15.3669V12.223C3.33915 7.87341 6.7657 4.33496 10.9755 4.33496C11.1501 4.33496 11.3388 4.33826 11.5134 4.3688C11.9595 4.44535 12.2607 4.88154 12.1864 5.34126C12.1123 5.80098 11.6824 6.11213 11.2449 6.03537C11.1576 6.02072 11.0618 6.02526 10.9755 6.02526C7.66798 6.02526 4.97552 8.80522 4.97552 12.223V15.3669C4.97552 18.0895 3.82015 20.6656 1.80865 22.4335C1.79227 22.4471 1.77808 22.4595 1.76051 22.4719C1.73114 22.5102 1.70278 22.5688 1.70278 22.6466C1.70278 22.7997 1.82722 22.9283 1.97544 22.9283H19.9755C20.1239 22.9283 20.2484 22.7997 20.2484 22.6466C20.2484 22.5676 20.22 22.5102 20.1894 22.4719C20.1731 22.4595 20.1589 22.4471 20.1425 22.4335C18.1298 20.6644 16.9756 18.0895 16.9756 15.3669V14.1388C16.9756 13.6723 17.3422 13.2936 17.7938 13.2936C18.2455 13.2936 18.612 13.6723 18.612 14.1388V15.3669C18.612 17.5611 19.5295 19.6389 21.1331 21.0836C21.1624 21.1039 21.1908 21.1253 21.217 21.149C21.6414 21.5231 21.8847 22.0695 21.8847 22.6466C21.8847 23.734 21.0284 24.6186 19.9755 24.6186Z" fill="black"/>
</svg>
