<svg width="105" height="105" viewBox="0 0 105 105" fill="none" xmlns="http://www.w3.org/2000/svg">
<path d="M65.0002 77.4995C78.8072 77.4995 90 66.3067 90 52.4997C90 38.6928 78.8072 27.5 65.0002 27.5C51.1933 27.5 40.0005 38.6928 40.0005 52.4997C40.0005 66.3067 51.1933 77.4995 65.0002 77.4995Z" fill="#FED35B"/>
<path d="M65.0003 72.9595C76.2996 72.9595 85.4595 63.7996 85.4595 52.5003C85.4595 41.2009 76.2996 32.041 65.0003 32.041C53.7009 32.041 44.541 41.2009 44.541 52.5003C44.541 63.7996 53.7009 72.9595 65.0003 72.9595Z" fill="#EAC355"/>
<path d="M64.1167 68.6441V66.3859C62.4606 66.1772 61.1143 65.8063 60.0778 65.2727C59.0412 64.739 58.1457 63.8773 57.3913 62.6874C56.6369 61.4977 56.1984 60.0441 56.0757 58.3265L59.4062 57.7009C59.6638 59.4796 60.1176 60.786 60.7678 61.6202C61.7001 62.7978 62.8164 63.4541 64.1167 63.589V53.0456C62.755 52.788 61.3627 52.2607 59.9398 51.4632C58.8848 50.8744 58.0721 50.0586 57.5017 49.0159C56.9313 47.9734 56.6461 46.7895 56.6461 45.4646C56.6461 43.1094 57.4802 41.2021 59.1485 39.7421C60.2648 38.7608 61.9209 38.1597 64.1167 37.9389V36.3564H66.0671V37.9389C67.993 38.1229 69.5202 38.6872 70.6488 39.6317C72.0963 40.8341 72.9672 42.4838 73.2616 44.5814L69.8392 45.0966C69.6429 43.7965 69.235 42.7996 68.6156 42.1066C67.9961 41.4137 67.1466 40.9565 66.0671 40.7357V50.2855C67.7354 50.7026 68.8394 51.0279 69.3792 51.2608C70.4096 51.7146 71.2499 52.2667 71.9 52.9168C72.5502 53.5671 73.05 54.34 73.3996 55.2353C73.7493 56.1307 73.9241 57.1 73.9241 58.1425C73.9241 60.4364 73.1942 62.3501 71.7344 63.8834C70.2747 65.417 68.3855 66.2387 66.0671 66.3491V68.6441H64.1167ZM64.1167 40.6989C62.8286 40.8952 61.8135 41.4104 61.0714 42.2446C60.3292 43.0789 59.9582 44.0662 59.9582 45.207C59.9582 46.3358 60.274 47.2801 60.9058 48.0407C61.5375 48.8014 62.6078 49.4087 64.1167 49.8623V40.6989ZM66.0671 63.589C67.3551 63.4297 68.4193 62.8714 69.2596 61.9146C70.0998 60.9578 70.52 59.774 70.52 58.3633C70.52 57.1612 70.2225 56.1951 69.6276 55.4653C69.0326 54.7356 67.8458 54.0823 66.0671 53.5056V63.589Z" fill="#FED35B"/>
<path d="M39.9998 77.4995C53.8067 77.4995 64.9995 66.3067 64.9995 52.4997C64.9995 38.6928 53.8067 27.5 39.9998 27.5C26.1928 27.5 15 38.6928 15 52.4997C15 66.3067 26.1928 77.4995 39.9998 77.4995Z" fill="#FED35B"/>
<path d="M39.9998 72.9595C51.2991 72.9595 60.459 63.7996 60.459 52.5003C60.459 41.2009 51.2991 32.041 39.9998 32.041C28.7004 32.041 19.5405 41.2009 19.5405 52.5003C19.5405 63.7996 28.7004 72.9595 39.9998 72.9595Z" fill="#EAC355"/>
<path d="M39.1169 68.6441V66.3859C37.4609 66.1772 36.1146 65.8063 35.078 65.2727C34.0415 64.739 33.146 63.8773 32.3916 62.6874C31.6371 61.4977 31.1986 60.0441 31.0759 58.3265L34.4064 57.7009C34.664 59.4796 35.1179 60.786 35.768 61.6202C36.7003 62.7978 37.8166 63.4541 39.1169 63.589V53.0456C37.7553 52.788 36.363 52.2607 34.94 51.4632C33.8851 50.8744 33.0724 50.0586 32.502 49.0159C31.9315 47.9734 31.6463 46.7895 31.6463 45.4646C31.6463 43.1094 32.4805 41.2021 34.1488 39.7421C35.2651 38.7608 36.9211 38.1597 39.1169 37.9389V36.3564H41.0673V37.9389C42.9932 38.1229 44.5205 38.6872 45.649 39.6317C47.0965 40.8341 47.9675 42.4838 48.2619 44.5814L44.8394 45.0966C44.6431 43.7965 44.2353 42.7996 43.6158 42.1066C42.9963 41.4137 42.1468 40.9565 41.0673 40.7357V50.2855C42.7356 50.7026 43.8397 51.0279 44.3794 51.2608C45.4098 51.7146 46.2501 52.2667 46.9003 52.9168C47.5504 53.5671 48.0503 54.34 48.3999 55.2353C48.7495 56.1307 48.9243 57.1 48.9243 58.1425C48.9243 60.4364 48.1944 62.3501 46.7347 63.8834C45.2749 65.417 43.3858 66.2387 41.0673 66.3491V68.6441H39.1169ZM39.1169 40.6989C37.8289 40.8952 36.8138 41.4104 36.0716 42.2446C35.3295 43.0789 34.9584 44.0662 34.9584 45.207C34.9584 46.3358 35.2743 47.2801 35.906 48.0407C36.5378 48.8014 37.6081 49.4087 39.1169 49.8623V40.6989ZM41.0673 63.589C42.3554 63.4297 43.4195 62.8714 44.2598 61.9146C45.1001 60.9578 45.5202 59.774 45.5202 58.3633C45.5202 57.1612 45.2228 56.1951 44.6278 55.4653C44.0329 54.7356 42.846 54.0823 41.0673 53.5056V63.589Z" fill="#FED35B"/>
<g opacity="0.1">
<path opacity="0.1" d="M57.5084 28.6436C55.7471 29.1959 54.0769 29.9496 52.5073 30.8574C59.9736 35.1815 65 43.2516 65 52.5001C65 61.7491 59.9736 69.8192 52.5073 74.1434C54.0769 75.0512 55.7471 75.8043 57.5084 76.3572C64.8392 70.9627 69.6074 62.2795 69.6074 52.5007C69.6074 42.7213 64.8389 34.0381 57.5084 28.6436Z" fill="#304551"/>
</g>
</svg>
