<svg width="20" height="20" viewBox="0 0 20 20" fill="none" xmlns="http://www.w3.org/2000/svg">
<path d="M15.9595 1.875H4.04058L0.625031 6.99828V7.96648L7.78991 18.75H12.2101L19.375 7.96648V6.99828L15.9595 1.875ZM15.2906 3.125L17.7674 6.84027H13.5836L12.4144 3.125H15.2906ZM8.89605 3.125H11.104L12.2732 6.84027H7.72691L8.89605 3.125ZM4.70952 3.125H7.58566L6.41648 6.84027H2.23265L4.70952 3.125ZM8.46015 17.5L2.20804 8.09027H6.37964L8.58648 17.5H8.46015ZM9.8703 17.5L7.66359 8.09027H12.3365L10.1296 17.5H9.8703ZM11.5398 17.5H11.4135L13.6205 8.09027H17.792L11.5398 17.5Z" fill="#A4A4A4"/>
</svg>
