<svg width="86" height="86" viewBox="0 0 86 86" fill="none" xmlns="http://www.w3.org/2000/svg">
<path opacity="0.3" d="M6.71802 42.9989C6.71802 43.9127 6.71802 44.8264 6.83896 45.6864C2.23107 40.4302 -0.206303 33.6188 0.020753 26.6325C0.247809 19.6461 3.12231 13.0074 8.06177 8.06143C13.0077 3.12196 19.6465 0.247466 26.6328 0.0204097C33.6192 -0.206646 40.4306 2.23072 45.6868 6.83862C44.8268 6.71768 43.913 6.71768 42.9993 6.71768C33.3769 6.71768 24.1486 10.5402 17.3446 17.3442C10.5405 24.1483 6.71802 33.3765 6.71802 42.9989ZM77.9368 77.9364C72.9908 82.8759 66.3521 85.7504 59.3657 85.9774C52.3794 86.2045 45.568 83.7671 40.3118 79.1592C41.1987 79.2399 42.1124 79.2802 42.9993 79.2802C52.6217 79.2802 61.8499 75.4577 68.654 68.6536C75.458 61.8496 79.2805 52.6213 79.2805 42.9989C79.2805 42.0852 79.2805 41.1714 79.1596 40.3114C83.7675 45.5677 86.2048 52.379 85.9778 59.3654C85.7507 66.3517 82.8762 72.9905 77.9368 77.9364Z" fill="#C3CB23"/>
<path d="M79.3484 33.2573C78.5057 30.0792 77.2402 27.0285 75.5859 24.187C73.9412 21.3393 71.9309 18.7192 69.6062 16.3932C69.3532 16.1402 69.01 15.9981 68.6522 15.9981C68.2943 15.9981 67.9512 16.1402 67.6981 16.3932C67.4451 16.6463 67.3029 16.9895 67.3029 17.3473C67.3029 17.7051 67.4451 18.0483 67.6981 18.3014C69.5436 20.1408 71.1754 22.1828 72.5625 24.3886L67.9131 27.0761C66.7541 25.2731 65.4024 23.6015 63.8819 22.0907C63.757 21.9648 63.6083 21.8648 63.4446 21.7966C63.2808 21.7284 63.1052 21.6933 62.9278 21.6933C62.7504 21.6933 62.5748 21.7284 62.411 21.7966C62.2473 21.8648 62.0987 21.9648 61.9737 22.0907L57.2169 26.8745C56.1479 25.9312 54.9864 25.0983 53.75 24.3886C52.1264 23.437 50.3817 22.7092 48.5631 22.2251C45.3593 21.3755 42.0029 21.2744 38.7537 21.9295L37.3428 16.7292C41.5143 15.8363 45.8378 15.9422 49.9606 17.0382C52.2299 17.6408 54.4083 18.5446 56.4375 19.7257C56.7429 19.9008 57.1047 19.9491 57.4453 19.8601C57.6193 19.8159 57.7827 19.7372 57.9258 19.6287C58.0689 19.5202 58.1888 19.3842 58.2784 19.2286L62.3097 12.2545C62.3744 12.1276 62.4197 11.9917 62.4441 11.8514C62.4441 11.8514 62.4441 11.7842 62.4441 11.7573C62.4647 11.6418 62.4647 11.5235 62.4441 11.4079C62.4507 11.3499 62.4507 11.2913 62.4441 11.2332C62.4441 11.2332 62.3634 11.0989 62.3366 11.0182C62.3062 10.9245 62.2657 10.8344 62.2156 10.7495C62.1743 10.7055 62.1293 10.6651 62.0812 10.6286C62.0045 10.5385 61.9138 10.4613 61.8125 10.4001C58.9693 8.76871 55.9181 7.53015 52.7422 6.71824C46.3578 5.02491 39.6422 5.02491 33.2578 6.71824C30.0806 7.53862 27.0293 8.78625 24.1875 10.427C24.0862 10.4882 23.9955 10.5653 23.9187 10.6554C23.8707 10.6919 23.8257 10.7324 23.7844 10.7764C23.736 10.8527 23.6955 10.9338 23.6634 11.0182C23.6634 11.0989 23.5828 11.1661 23.5559 11.2332C23.5493 11.2913 23.5493 11.3499 23.5559 11.4079C23.5353 11.5235 23.5353 11.6418 23.5559 11.7573C23.5559 11.7573 23.5559 11.8245 23.5559 11.8514C23.5803 11.9917 23.6256 12.1276 23.6903 12.2545L27.7216 19.2286C27.8998 19.5386 28.1938 19.7652 28.5391 19.8584C28.8843 19.9517 29.2524 19.9039 29.5625 19.7257C29.8726 19.5476 30.0991 19.2535 30.1924 18.9082C30.2856 18.563 30.2379 18.1949 30.0597 17.8848L26.7137 12.0932C29.0083 10.8637 31.4392 9.90757 33.9566 9.24449C39.8858 7.65888 46.1276 7.65888 52.0569 9.24449C54.5692 9.90997 56.9953 10.866 59.2862 12.0932L56.5987 16.7426C50.0559 13.3249 42.4651 12.4996 35.3406 14.4314C35.2561 14.4634 35.1751 14.504 35.0988 14.5523C35.0185 14.5844 34.942 14.625 34.8703 14.6732C34.8015 14.7304 34.7425 14.7985 34.6956 14.8748C34.6308 14.9311 34.5722 14.9941 34.5209 15.0629C34.4865 15.1408 34.4595 15.2218 34.4403 15.3048C34.4074 15.3833 34.3805 15.4642 34.3597 15.5467C34.353 15.6451 34.353 15.7439 34.3597 15.8423C34.3597 15.9229 34.3597 16.0036 34.3597 16.0842L36.12 22.6148C34.7753 23.0731 33.4791 23.6627 32.25 24.3751C31.0162 25.0941 29.8551 25.9311 28.7831 26.8745L18.3019 16.3932C18.177 16.2673 18.0283 16.1673 17.8646 16.0991C17.7008 16.0309 17.5252 15.9958 17.3478 15.9958C17.1704 15.9958 16.9948 16.0309 16.831 16.0991C16.6673 16.1673 16.5187 16.2673 16.3938 16.3932C14.0692 18.716 12.063 21.3368 10.4275 24.187C8.78676 27.0288 7.53913 30.0801 6.71875 33.2573C5.84759 36.4321 5.39584 39.7074 5.375 42.9995C5.375 43.3559 5.51657 43.6977 5.76858 43.9497C6.02058 44.2017 6.36237 44.3432 6.71875 44.3432C7.07513 44.3432 7.41692 44.2017 7.66892 43.9497C7.92093 43.6977 8.0625 43.3559 8.0625 42.9995C8.06202 39.9456 8.46413 36.9049 9.25844 33.9561C10.0346 31.0018 11.21 28.1673 12.7522 25.5307C14.0514 23.2796 15.6022 21.1834 17.3747 19.2823L26.875 28.7826C25.9317 29.8546 25.0946 31.0157 24.3756 32.2495C23.4339 33.8763 22.711 35.6204 22.2256 37.4364C21.2581 41.082 21.2581 44.917 22.2256 48.5626C22.6041 49.951 23.1125 51.3008 23.7441 52.5939L17.8853 55.9667C17.5753 56.1449 17.3487 56.4389 17.2554 56.7842C17.1622 57.1294 17.2099 57.4976 17.3881 57.8076C17.5663 58.1177 17.8604 58.3442 18.2056 58.4375C18.5509 58.5307 18.919 58.483 19.2291 58.3048L25.0878 54.9186C26.9249 57.6807 29.3762 59.9802 32.25 61.6373C33.4844 62.3611 34.7903 62.9555 36.1469 63.4111L34.3866 69.8745C34.3866 69.9551 34.3866 70.0357 34.3866 70.1164C34.3799 70.2148 34.3799 70.3136 34.3866 70.412C34.4074 70.4945 34.4343 70.5754 34.4672 70.6539C34.4863 70.7369 34.5133 70.8179 34.5478 70.8957L34.7225 71.0839C34.7693 71.1601 34.8283 71.2282 34.8972 71.2854C34.9663 71.3346 35.0437 71.371 35.1256 71.3929C35.1985 71.4505 35.2801 71.4959 35.3675 71.5273C37.4219 72.0906 39.5297 72.4373 41.6562 72.562V77.937C39.05 77.8424 36.4627 77.4548 33.9431 76.7814C30.9915 75.9914 28.1614 74.8024 25.5312 73.2473C23.2801 71.9481 21.1839 70.3973 19.2828 68.6248L23.0722 64.822C24.6447 66.2686 26.3705 67.5393 28.2188 68.6114C28.5288 68.7896 28.8969 68.8373 29.2422 68.744C29.5874 68.6508 29.8815 68.4242 30.0597 68.1142C30.2379 67.8041 30.2856 67.436 30.1924 67.0907C30.0991 66.7455 29.8726 66.4514 29.5625 66.2732C27.5251 65.1045 25.654 63.6673 23.9994 62.0001C23.8745 61.8742 23.7258 61.7742 23.5621 61.706C23.3983 61.6378 23.2227 61.6026 23.0453 61.6026C22.8679 61.6026 22.6923 61.6378 22.5285 61.706C22.3648 61.7742 22.2162 61.8742 22.0913 62.0001L17.3747 66.7167C15.6022 64.8125 14.0473 62.7167 12.7387 60.4682C11.4305 58.2167 10.3845 55.8226 9.62125 53.3329L16.125 51.6129C16.2056 51.6129 16.2594 51.5323 16.34 51.5054C16.4291 51.4688 16.5146 51.4238 16.5953 51.3711C16.5953 51.3711 16.5953 51.3711 16.6759 51.277L16.7834 51.1695C16.8368 51.1101 16.8862 51.0473 16.9313 50.9814C16.9313 50.9814 16.9313 50.9814 16.9313 50.9007V50.7664C16.9765 50.6822 17.0082 50.5916 17.0253 50.4976C17.0253 50.4976 17.0253 50.4036 17.0253 50.3632C17.0456 50.2296 17.0456 50.0937 17.0253 49.9601C15.807 45.3997 15.807 40.5993 17.0253 36.0389C17.6333 33.7714 18.5368 31.5938 19.7128 29.562C19.8022 29.4094 19.8606 29.2407 19.8847 29.0655C19.9088 28.8903 19.898 28.7121 19.8531 28.5411C19.8081 28.3701 19.7299 28.2096 19.6228 28.0689C19.5157 27.9282 19.3819 27.81 19.2291 27.7211C19.0757 27.6322 18.9063 27.5746 18.7305 27.5515C18.5548 27.5284 18.3762 27.5403 18.2051 27.5865C18.034 27.6327 17.8737 27.7123 17.7335 27.8208C17.5933 27.9292 17.4759 28.0643 17.3881 28.2182C16.096 30.453 15.1021 32.8473 14.4319 35.3401C13.7746 37.8403 13.4404 40.4144 13.4375 42.9995C13.4375 43.5907 13.4375 44.182 13.4375 44.7867C13.4375 44.9748 13.4375 45.1495 13.4375 45.3376C13.4375 45.7542 13.5047 46.1573 13.5584 46.5739L13.6391 47.2189C13.6391 47.6086 13.76 47.9848 13.8272 48.3745L13.9481 49.0061C13.9481 49.127 13.9481 49.2345 13.9481 49.3554L7.60562 51.062C7.43513 51.1126 7.27561 51.1946 7.13531 51.3039C7.13531 51.3039 7.13531 51.3039 7.05469 51.3979C6.95087 51.4825 6.86029 51.5822 6.78594 51.6936C6.78594 51.6936 6.78594 51.6936 6.78594 51.7742C6.72005 51.9006 6.67469 52.0367 6.65156 52.1773C6.65156 52.1773 6.65156 52.2714 6.65156 52.3251C6.63263 52.4543 6.63263 52.5856 6.65156 52.7148H6.71875C7.53806 55.8988 8.78092 58.9585 10.4141 61.812C12.0588 64.6596 14.0691 67.2798 16.3938 69.6057C18.7165 71.9303 21.3373 73.9365 24.1875 75.572C27.0257 77.2361 30.0772 78.5064 33.2578 79.3479C36.4354 80.1975 39.7108 80.6266 43 80.6245C43.3564 80.6245 43.6982 80.4829 43.9502 80.2309C44.2022 79.9789 44.3438 79.6371 44.3438 79.2807V71.2182C44.3438 70.8619 44.2022 70.5201 43.9502 70.2681C43.6982 70.0161 43.3564 69.8745 43 69.8745C41.0985 69.8675 39.2028 69.6649 37.3428 69.2698L38.7537 64.0695C40.1514 64.3533 41.5738 64.4974 43 64.4995C44.8779 64.499 46.7479 64.2551 48.5631 63.7739C49.9531 63.4 51.3032 62.8915 52.5944 62.2554L55.9672 68.1142C56.1454 68.4242 56.4394 68.6508 56.7847 68.744C57.1299 68.8373 57.4981 68.7896 57.8081 68.6114C58.1182 68.4332 58.3447 68.1391 58.438 67.7939C58.5312 67.4486 58.4835 67.0805 58.3053 66.7704L54.9191 60.9117C57.6759 59.0683 59.9741 56.6183 61.6378 53.7495C62.5795 52.1226 63.3024 50.3786 63.7878 48.5626C63.8805 48.2169 63.832 47.8486 63.6531 47.5386C63.4742 47.2287 63.1794 47.0025 62.8337 46.9098C62.4881 46.8171 62.1197 46.8656 61.8098 47.0445C61.4998 47.2234 61.2736 47.5182 61.1809 47.8639C60.7576 49.4544 60.125 50.9817 59.2997 52.4057C57.6381 55.2587 55.2624 57.6298 52.4062 59.2857C48.0812 61.7639 42.9528 62.4352 38.1356 61.1536C36.5464 60.7387 35.0192 60.1152 33.5938 59.2992C30.7408 57.6376 28.3697 55.2619 26.7137 52.4057C25.8833 50.9842 25.2504 49.4562 24.8325 47.8639C23.9725 44.678 23.9725 41.321 24.8325 38.1351C25.2504 36.5428 25.8833 35.0148 26.7137 33.5932C27.9988 31.3779 29.7227 29.4483 31.7797 27.9226C32.3631 27.4843 32.9686 27.0762 33.5938 26.6998C35.0185 25.8792 36.5458 25.2511 38.1356 24.832C41.3215 23.972 44.6785 23.972 47.8644 24.832C49.4567 25.2499 50.9847 25.8828 52.4062 26.7132C55.2654 28.3652 57.6421 30.7373 59.2997 33.5932C60.1203 35.018 60.7484 36.5453 61.1675 38.1351C61.2219 38.2932 61.2988 38.4425 61.3959 38.5786L61.5034 38.6861C61.5836 38.8024 61.6893 38.899 61.8125 38.9682L61.9603 39.0489L62.2559 39.1564H62.4306H62.5381H62.8875L69.3375 37.4229C69.7062 39.2586 69.8863 41.1272 69.875 42.9995C69.875 43.3559 70.0166 43.6977 70.2686 43.9497C70.5206 44.2017 70.8624 44.3432 71.2188 44.3432C71.5751 44.3432 71.9169 44.2017 72.1689 43.9497C72.4209 43.6977 72.5625 43.3559 72.5625 42.9995C72.5596 40.4144 72.2254 37.8403 71.5681 35.3401C71.5354 35.2424 71.4853 35.1514 71.4203 35.0714C71.3972 35.0007 71.3656 34.933 71.3263 34.8698C71.1704 34.671 70.9616 34.5202 70.724 34.4346C70.4863 34.3491 70.2293 34.3322 69.9825 34.3861H69.875L63.3847 36.1464C62.4724 33.4312 61.0238 30.9271 59.125 28.7826L62.9278 24.9798C64.2039 26.3831 65.3256 27.9193 66.2738 29.562L66.3947 29.7232L66.5022 29.8442C66.5842 29.9304 66.6794 30.003 66.7844 30.0592C66.9852 30.173 67.212 30.2332 67.4428 30.2339C67.5543 30.2479 67.6672 30.2479 67.7787 30.2339H67.8862L68.1147 30.1398L73.9062 26.7132C75.1358 29.0078 76.0919 31.4387 76.755 33.9561C78.3496 39.8796 78.3496 46.1194 76.755 52.0429C75.9746 54.9978 74.7947 57.8324 73.2478 60.4682C71.9486 62.7194 70.3978 64.8156 68.6253 66.7167L64.8225 62.9273C68.0195 59.4401 70.3247 55.2307 71.5413 50.6589C71.5871 50.4877 71.5988 50.3092 71.5757 50.1335C71.5526 49.9578 71.4951 49.7883 71.4065 49.6349C71.3179 49.4814 71.2 49.3469 71.0594 49.239C70.9188 49.1311 70.7584 49.0519 70.5872 49.0061C70.416 48.9602 70.2375 48.9485 70.0618 48.9716C69.8861 48.9947 69.7167 49.0522 69.5632 49.1408C69.4097 49.2294 69.2752 49.3473 69.1673 49.4879C69.0594 49.6285 68.9803 49.7889 68.9344 49.9601C67.7194 54.5339 65.3183 58.7058 61.9737 62.0539C61.8478 62.1788 61.7478 62.3274 61.6796 62.4912C61.6114 62.6549 61.5763 62.8305 61.5763 63.0079C61.5763 63.1853 61.6114 63.361 61.6796 63.5247C61.7478 63.6885 61.8478 63.8371 61.9737 63.962L66.6903 68.6786C64.7918 70.4307 62.7052 71.9674 60.4688 73.2607C58.2155 74.5623 55.8217 75.6036 53.3334 76.3648L51.6134 69.8745C51.5208 69.5288 51.2946 69.2341 50.9846 69.0552C50.6747 68.8762 50.3063 68.8278 49.9606 68.9204C49.6149 69.0131 49.3202 69.2393 49.1413 69.5492C48.9624 69.8592 48.9139 70.2276 49.0066 70.5732L51.0625 78.3939C51.0946 78.4784 51.1351 78.5594 51.1834 78.6357C51.1834 78.6357 51.1834 78.7567 51.1834 78.797C51.258 78.896 51.3437 78.9862 51.4387 79.0657C51.5477 79.1493 51.6705 79.213 51.8016 79.2539C51.9442 79.2743 52.089 79.2743 52.2316 79.2539H52.5809C55.8108 78.457 58.9167 77.2228 61.8125 75.5854C64.6601 73.9407 67.2803 71.9304 69.6062 69.6057C71.9308 67.283 73.937 64.6622 75.5725 61.812C77.2366 58.9738 78.5069 55.9223 79.3484 52.7417C81.0505 46.3584 81.0505 39.6406 79.3484 33.2573Z" fill="#535353"/>
<path d="M47.0313 51.0623H38.9688C38.6124 51.0623 38.2706 50.9207 38.0186 50.6687C37.7666 50.4167 37.625 50.0749 37.625 49.7186C37.6906 47.4766 36.9943 45.2787 35.6497 43.4836C34.8273 42.4613 34.2299 41.277 33.8965 40.0082C33.563 38.7393 33.5011 37.4143 33.7147 36.1198C34.0552 34.1123 35.0317 32.2673 36.5003 30.8569C37.9688 29.4464 39.8517 28.5451 41.8713 28.2857C43.1922 28.1261 44.532 28.2485 45.8022 28.6449C47.0724 29.0413 48.244 29.7026 49.2397 30.5853C50.2354 31.4679 51.0325 32.5518 51.5783 33.7653C52.1242 34.9787 52.4064 36.2942 52.4063 37.6248C52.414 39.6342 51.7679 41.5915 50.5653 43.2014C49.2096 44.9373 48.4423 47.0601 48.375 49.2617V49.7186C48.375 50.0749 48.2334 50.4167 47.9814 50.6687C47.7294 50.9207 47.3876 51.0623 47.0313 51.0623ZM40.3125 48.3748H45.6875C45.9412 45.9289 46.8718 43.6022 48.375 41.6561C49.1823 40.6026 49.6595 39.3337 49.7464 38.0094C49.8333 36.6851 49.5261 35.3647 48.8635 34.2147C48.2008 33.0648 47.2125 32.1369 46.0231 31.5481C44.8337 30.9592 43.4965 30.7358 42.1803 30.9061C40.7379 31.0814 39.3912 31.7197 38.3421 32.7251C37.2931 33.7305 36.5983 35.0489 36.3619 36.4826C36.2065 37.4058 36.2458 38.3512 36.4772 39.2583C36.7086 40.1654 37.127 41.0142 37.7056 41.7501C39.2196 43.6468 40.1279 45.955 40.3125 48.3748Z" fill="#C3CB23"/>
<path d="M43 56.4375C41.5745 56.4375 40.2073 55.8712 39.1993 54.8632C38.1913 53.8552 37.625 52.488 37.625 51.0625V49.7188C37.625 49.3624 37.7666 49.0206 38.0186 48.7686C38.2706 48.5166 38.6124 48.375 38.9688 48.375H47.0312C47.3876 48.375 47.7294 48.5166 47.9814 48.7686C48.2334 49.0206 48.375 49.3624 48.375 49.7188V51.0625C48.375 52.488 47.8087 53.8552 46.8007 54.8632C45.7927 55.8712 44.4255 56.4375 43 56.4375ZM40.3125 51.0625C40.3125 51.7753 40.5956 52.4588 41.0997 52.9629C41.6037 53.4669 42.2872 53.75 43 53.75C43.7128 53.75 44.3963 53.4669 44.9004 52.9629C45.4044 52.4588 45.6875 51.7753 45.6875 51.0625H40.3125Z" fill="#C3CB23"/>
</svg>
