<svg width="22" height="20" viewBox="0 0 22 20" fill="none" xmlns="http://www.w3.org/2000/svg">
<path d="M3.23726 14.7682L20.0189 1.06575V2.222H20.6537V0H18.4317V0.634856H19.5428L2.83569 14.2764L3.23726 14.7682Z" fill="#A4A4A4"/>
<path d="M20.654 19.3654V5.0791H18.1146V19.3654H17.4797V9.84052H14.9403V19.3654H14.3054V12.3799H11.766V19.3654H11.1311V13.6497H8.59172V19.3654H7.95686V14.9194H5.41744V19.3654H4.78258V16.1891H2.24316V19.3654H0V20.0003H21.6698V19.3654H20.654ZM18.7494 5.71396H20.0191V19.3654H18.7494V5.71396ZM15.5751 10.4754H16.8449V19.3654H15.5751V10.4754ZM12.4009 13.0148H13.6706V19.3654H12.4009V13.0148ZM9.22658 14.2845H10.4963V19.3654H9.22658V14.2845ZM6.0523 15.5542H7.32201V19.3654H6.0523V15.5542ZM2.87801 16.8239H4.14773V19.3654H2.87801V16.8239Z" fill="#A4A4A4"/>
</svg>
