<svg width="82" height="78" viewBox="0 0 82 78" fill="none" xmlns="http://www.w3.org/2000/svg">
<path fill-rule="evenodd" clip-rule="evenodd" d="M80.0013 45.8161C79.4999 41.0684 77.6717 36.5579 74.7259 32.8009C71.7802 29.044 67.836 26.1925 63.345 24.573C63.345 24.573 58.1431 21.7671 44.3569 21.3058C43.2731 21.2392 42.1863 21.2392 41.1025 21.3058C25.5994 21.5108 19.8081 24.6243 19.8081 24.6243C15.3301 26.2645 11.3986 29.1218 8.45596 32.8747C5.51336 36.6277 3.67644 41.1273 3.15188 45.8674C2.22938 56.8989 1.87063 77.2324 9.35313 77.2324C16.8356 77.2324 16.7844 58.193 16.7844 58.193L32.5053 47.0205C35.4918 46.4862 38.5173 46.1991 41.5509 46.1621C44.5846 46.1997 47.61 46.4868 50.5966 47.0205L66.3047 58.193C66.3047 58.193 66.3047 77.2324 73.7488 77.2324C81.1928 77.2324 80.9238 56.8477 80.0013 45.8161Z" fill="#252C3C"/>
<path d="M57.3744 63.6639C62.9999 63.6639 67.5603 59.1035 67.5603 53.4779C67.5603 47.8524 62.9999 43.292 57.3744 43.292C51.7488 43.292 47.1884 47.8524 47.1884 53.4779C47.1884 59.1035 51.7488 63.6639 57.3744 63.6639Z" fill="#252C3C"/>
<path d="M68.8028 53.7151C76.5349 52.46 81.7855 45.1745 80.5304 37.4424C79.2753 29.7103 71.9898 24.4597 64.2577 25.7148C56.5256 26.9698 51.2749 34.2554 52.53 41.9875C53.7851 49.7196 61.0707 54.9702 68.8028 53.7151Z" fill="#313B51"/>
<path d="M57.3744 61.8952C62.0234 61.8952 65.7922 58.1264 65.7922 53.4774C65.7922 48.8284 62.0234 45.0596 57.3744 45.0596C52.7253 45.0596 48.9566 48.8284 48.9566 53.4774C48.9566 58.1264 52.7253 61.8952 57.3744 61.8952Z" fill="#546680"/>
<path d="M24.6256 63.6639C30.2512 63.6639 34.8116 59.1035 34.8116 53.4779C34.8116 47.8524 30.2512 43.292 24.6256 43.292C19.0001 43.292 14.4397 47.8524 14.4397 53.4779C14.4397 59.1035 19.0001 63.6639 24.6256 63.6639Z" fill="#252C3C"/>
<path d="M28.5685 45.1443C31.5662 37.9073 28.1295 29.6104 20.8925 26.6128C13.6554 23.6151 5.35858 27.0518 2.3609 34.2888C-0.63677 41.5258 2.7999 49.8227 10.0369 52.8203C17.2739 55.818 25.5708 52.3813 28.5685 45.1443Z" fill="#313B51"/>
<path d="M24.6256 61.8952C29.2747 61.8952 33.0434 58.1264 33.0434 53.4774C33.0434 48.8284 29.2747 45.0596 24.6256 45.0596C19.9766 45.0596 16.2078 48.8284 16.2078 53.4774C16.2078 58.1264 19.9766 61.8952 24.6256 61.8952Z" fill="#546680"/>
<path fill-rule="evenodd" clip-rule="evenodd" d="M62.3328 49.9669C62.304 49.8736 62.2395 49.7953 62.1534 49.7491L58.3866 47.6094C58.3442 47.5907 58.2984 47.5811 58.252 47.5811C58.2057 47.5811 58.1599 47.5907 58.1175 47.6094L53.8894 48.6344C53.7976 48.6589 53.7192 48.7188 53.6716 48.801L51.3397 52.3244C51.3182 52.3683 51.307 52.4165 51.307 52.4654C51.307 52.5142 51.3182 52.5624 51.3397 52.6063L52.3903 57.0394C52.4016 57.0869 52.4221 57.1317 52.4506 57.1713C52.4792 57.2109 52.5153 57.2444 52.5569 57.27L56.375 59.4994C56.4382 59.5142 56.504 59.5142 56.5672 59.4994H56.6569L61.0259 58.4104C61.1228 58.382 61.2053 58.3179 61.2566 58.231L63.5372 54.3744C63.5694 54.2832 63.5694 54.1837 63.5372 54.0925L62.3328 49.9669Z" fill="#2C95A0"/>
<path fill-rule="evenodd" clip-rule="evenodd" d="M41.6022 37.8846C41.0983 37.8972 40.6093 38.0581 40.1964 38.3472C39.7835 38.6364 39.4651 39.0408 39.2809 39.51C39.0967 39.9792 39.0551 40.4923 39.161 40.9851C39.267 41.4779 39.516 41.9285 39.8768 42.2805C40.2376 42.6325 40.6942 42.8702 41.1894 42.964C41.6847 43.0578 42.1966 43.0035 42.6611 42.8078C43.1256 42.6121 43.5221 42.2838 43.8009 41.8639C44.0798 41.444 44.2286 40.9511 44.2288 40.4471C44.2289 40.1051 44.1605 39.7666 44.0278 39.4514C43.895 39.1363 43.7005 38.8509 43.4557 38.6121C43.2109 38.3733 42.9208 38.1859 42.6025 38.061C42.2842 37.936 41.9441 37.876 41.6022 37.8846Z" fill="#313B51"/>
<path fill-rule="evenodd" clip-rule="evenodd" d="M29.0844 51.4529H26.7141V48.7751C26.7108 48.613 26.6449 48.4585 26.5303 48.3439C26.4157 48.2292 26.2611 48.1634 26.0991 48.1601H23.1266C22.9691 48.1635 22.8192 48.2284 22.709 48.341C22.5988 48.4535 22.5372 48.6048 22.5372 48.7623V51.4529H19.8081C19.6506 51.4529 19.4994 51.5146 19.3868 51.6248C19.2742 51.7349 19.2093 51.8848 19.2059 52.0423V54.9636C19.2059 55.1267 19.2707 55.2831 19.3861 55.3984C19.5014 55.5138 19.6578 55.5786 19.8209 55.5786H22.5372V58.2179C22.5372 58.3788 22.6002 58.5334 22.7128 58.6483C22.8253 58.7633 22.9785 58.8296 23.1394 58.8329H26.1119C26.2716 58.8329 26.4248 58.7695 26.5377 58.6565C26.6506 58.5436 26.7141 58.3904 26.7141 58.2307V55.5786H29.4688C29.6285 55.5786 29.7816 55.5151 29.8946 55.4022C30.0075 55.2892 30.0709 55.1361 30.0709 54.9764V52.4139C30.071 52.2855 30.0453 52.1584 29.9954 52.0401C29.9455 51.9218 29.8725 51.8147 29.7805 51.7252C29.6885 51.6356 29.5795 51.5653 29.46 51.5186C29.3404 51.4718 29.2127 51.4495 29.0844 51.4529ZM15.375 32.0548C13.8945 32.0876 12.4566 32.5567 11.2416 33.4034C10.0267 34.2501 9.08868 35.4366 8.54528 36.8141C8.00188 38.1917 7.87725 39.699 8.18703 41.1472C8.4968 42.5953 9.22719 43.9197 10.2866 44.9544C11.346 45.9891 12.6873 46.688 14.1424 46.9635C15.5974 47.239 17.1014 47.0789 18.4657 46.5031C19.8301 45.9273 20.9941 44.9616 21.8119 43.727C22.6296 42.4924 23.0647 41.0438 23.0625 39.5629C23.0559 38.5637 22.8512 37.5756 22.4603 36.656C22.0694 35.7363 21.5 34.9033 20.7851 34.2051C20.0702 33.5069 19.224 32.9573 18.2954 32.5882C17.3667 32.2191 16.3741 32.0378 15.375 32.0548Z" fill="#2C95A0"/>
<path fill-rule="evenodd" clip-rule="evenodd" d="M41.6022 38.6788C41.2486 38.6838 40.9043 38.7933 40.6127 38.9934C40.3211 39.1936 40.0952 39.4755 39.9634 39.8036C39.8315 40.1318 39.7996 40.4916 39.8717 40.8379C39.9438 41.1841 40.1166 41.5014 40.3685 41.7497C40.6203 41.998 40.94 42.1663 41.2872 42.2334C41.6344 42.3006 41.9938 42.2636 42.32 42.1271C42.6463 41.9906 42.925 41.7607 43.121 41.4663C43.3169 41.1719 43.4215 40.8262 43.4216 40.4725C43.4199 40.2353 43.3715 40.0007 43.2792 39.7821C43.1868 39.5636 43.0523 39.3654 42.8834 39.1988C42.7144 39.0322 42.5143 38.9006 42.2945 38.8114C42.0747 38.7221 41.8394 38.6771 41.6022 38.6788Z" fill="#546680"/>
<path fill-rule="evenodd" clip-rule="evenodd" d="M66.5481 36.0402C65.6711 36.0528 64.8174 36.3246 64.0945 36.8213C63.3716 37.3181 62.8117 38.0175 62.4854 38.8317C62.1591 39.6458 62.0809 40.5383 62.2606 41.3968C62.4404 42.2553 62.8701 43.0415 63.4956 43.6563C64.1211 44.2712 64.9145 44.6873 65.776 44.8523C66.6375 45.0172 67.5285 44.9237 68.3369 44.5834C69.1454 44.2432 69.8351 43.6714 70.3193 42.94C70.8035 42.2087 71.0606 41.3504 71.0581 40.4733C71.0531 39.8861 70.9325 39.3056 70.7031 38.765C70.4737 38.2244 70.1401 37.7343 69.7213 37.3227C69.3025 36.911 68.8067 36.5859 68.2623 36.3658C67.7178 36.1458 67.1353 36.0351 66.5481 36.0402Z" fill="#2C95A0"/>
<path fill-rule="evenodd" clip-rule="evenodd" d="M61.6666 50.3132L58.1431 48.3145L54.2097 49.2498L52.0444 52.5682L53.0181 56.6938L56.6441 58.7951L60.7056 57.7701L62.7812 54.0929L61.6666 50.3132ZM57.4256 57.2191C56.7026 57.209 55.9987 56.9852 55.4026 56.5759C54.8066 56.1666 54.3449 55.5901 54.0758 54.9189C53.8067 54.2478 53.7421 53.512 53.8903 52.8043C54.0384 52.0965 54.3927 51.4484 54.9084 50.9416C55.4242 50.4347 56.0783 50.0918 56.7885 49.956C57.4987 49.8202 58.2333 49.8975 58.8996 50.1782C59.566 50.459 60.1344 50.9306 60.5333 51.5337C60.9322 52.1368 61.1437 52.8445 61.1413 53.5676C61.1379 54.0516 61.039 54.5301 60.8503 54.9758C60.6616 55.4215 60.3868 55.8256 60.0416 56.1648C59.6964 56.5041 59.2876 56.7718 58.8387 56.9528C58.3898 57.1337 57.9096 57.2242 57.4256 57.2191Z" fill="#EEB21E"/>
<path fill-rule="evenodd" clip-rule="evenodd" d="M57.4256 50.6336C56.847 50.6412 56.2836 50.8197 55.8062 51.1467C55.3287 51.4736 54.9587 51.9345 54.7425 52.4712C54.5263 53.008 54.4736 53.5967 54.5911 54.1633C54.7087 54.7299 54.9911 55.2491 55.4029 55.6556C55.8147 56.0621 56.3376 56.3377 56.9056 56.4479C57.4737 56.558 58.0617 56.4977 58.5956 56.2745C59.1295 56.0514 59.5855 55.6753 59.9062 55.1937C60.2269 54.712 60.3981 54.1463 60.3981 53.5677C60.3914 52.7849 60.0748 52.0368 59.5177 51.4869C58.9606 50.937 58.2084 50.6302 57.4256 50.6336ZM58.425 37.3086C58.1782 37.2182 57.9189 37.1664 57.6563 37.1549H57.4641C56.9991 37.1561 56.5424 37.2783 56.139 37.5096C55.7356 37.7409 55.3994 38.0733 55.1635 38.474C54.9276 38.8747 54.8 39.3299 54.7935 39.7949C54.7869 40.2598 54.9016 40.7185 55.1261 41.1257C55.3506 41.5329 55.6773 41.8746 56.074 42.1172C56.4707 42.3598 56.9237 42.4949 57.3885 42.5092C57.8533 42.5235 58.3138 42.4166 58.7247 42.1989C59.1356 41.9812 59.4827 41.6603 59.7319 41.2677C59.8719 41.0448 59.9798 40.8032 60.0522 40.5502C60.259 39.9079 60.2042 39.2099 59.8995 38.6078C59.5949 38.0057 59.065 37.5481 58.425 37.3342V37.3086ZM68.2906 30.8639C68.1681 30.4244 67.9025 30.0383 67.5358 29.7668C67.1692 29.4953 66.7224 29.3538 66.2663 29.3649C66.0935 29.3664 65.9215 29.3879 65.7538 29.4289H65.6384C63.3834 29.9542 63.3834 29.9542 60.9234 30.7102H60.7569C60.4902 30.7782 60.2399 30.8993 60.0209 31.0661C59.802 31.233 59.619 31.4422 59.4826 31.6814C59.3463 31.9205 59.2596 32.1847 59.2276 32.4581C59.1955 32.7315 59.2189 33.0085 59.2963 33.2727C59.3844 33.5846 59.5471 33.8704 59.7703 34.1055C59.9569 34.3026 60.1785 34.4634 60.4238 34.5795C60.8606 34.782 61.3539 34.8272 61.8203 34.7077C61.989 34.64 62.1518 34.5586 62.3072 34.4642C62.9087 34.1127 63.5494 33.8332 64.2163 33.6314C65.0573 33.444 65.9171 33.3537 66.7788 33.3624H66.8428C67.3521 33.222 67.7851 32.8857 68.0472 32.427C68.174 32.1885 68.2523 31.9272 68.2778 31.6583C68.3349 31.397 68.3392 31.1269 68.2906 30.8639ZM77.7719 41.3958V41.2677C77.423 39.6927 76.9954 38.1361 76.4906 36.6039V36.4758C76.4009 36.1471 76.2311 35.8458 75.9965 35.5988C75.7618 35.3518 75.4697 35.1667 75.1461 35.0601C74.8225 34.9535 74.4776 34.9287 74.1421 34.988C73.8066 35.0472 73.491 35.1886 73.2234 35.3995C73.0079 35.5699 72.8255 35.7783 72.6853 36.0145C72.4337 36.4768 72.3694 37.0181 72.5059 37.5264C72.5744 37.6906 72.6558 37.8492 72.7494 38.0005C73.1101 38.5916 73.3983 39.2239 73.6078 39.8839C73.7657 40.7509 73.8514 41.6294 73.8641 42.5105C73.9634 42.8158 74.1348 43.0926 74.3638 43.3177C74.5627 43.5266 74.8026 43.6924 75.0684 43.8045C75.4745 43.9727 75.9242 44.0042 76.3497 43.8942C76.8671 43.7476 77.3061 43.4035 77.5721 42.9361C77.8382 42.4687 77.9099 41.9156 77.7719 41.3958Z" fill="#2C95A0"/>
<path fill-rule="evenodd" clip-rule="evenodd" d="M45.2281 26.1871C45.2237 26.2168 45.2237 26.247 45.2281 26.2768L45.8047 27.3146V27.3786H46.125V25.7643H45.8688V26.7252V26.6355L45.3947 25.8155H45.0231V27.4427H45.3306L45.2281 26.1871ZM39.8981 26.0077V27.3658H40.2441V26.0205H40.7566V25.7643H39.3728V26.0205L39.8981 26.0077ZM36.9384 26.1871C37.1178 26.533 37.31 26.8789 37.5022 27.2249V27.2889H37.8225V25.7643H37.4766V26.7124V26.6483C37.3356 26.3664 37.1819 26.0846 37.0281 25.8027H36.6309V27.4427H36.9384V26.1871ZM34.8244 25.7258H34.4913V27.3402H34.8244V25.7258ZM48.5978 27.353C48.6814 27.3585 48.765 27.3412 48.8395 27.3028C48.914 27.2644 48.9766 27.2065 49.0206 27.1352C49.0353 27.0937 49.0353 27.0485 49.0206 27.0071V26.0589C49.0201 26.0156 49.0107 25.9728 48.9931 25.9331C48.9754 25.8935 48.9499 25.8578 48.9181 25.8283C48.8377 25.7645 48.7388 25.7286 48.6363 25.7258H47.7138V27.3658C48.0469 27.3914 48.3288 27.3786 48.5978 27.3914V27.353ZM48.0597 25.9821C48.2391 25.9821 48.4184 25.9821 48.5978 25.9821C48.6431 25.9853 48.6855 26.0056 48.7164 26.0389C48.7474 26.0722 48.7645 26.116 48.7644 26.1614V26.9174C48.7611 26.9763 48.7354 27.0317 48.6925 27.0722C48.6496 27.1128 48.5928 27.1353 48.5338 27.1352H48.0597V25.9821ZM50.5069 26.943C50.5033 27.0017 50.512 27.0606 50.5324 27.1158C50.5529 27.1709 50.5846 27.2212 50.6256 27.2635C50.6666 27.3057 50.716 27.3389 50.7706 27.3609C50.8251 27.3829 50.8837 27.3933 50.9425 27.3914C51.1174 27.4043 51.2929 27.4043 51.4678 27.3914C51.575 27.3922 51.6787 27.3534 51.7591 27.2825C51.8394 27.2116 51.8908 27.1135 51.9034 27.0071V26.0461C51.9035 26.003 51.8948 25.9602 51.8779 25.9205C51.861 25.8808 51.8363 25.8449 51.8051 25.815C51.774 25.7851 51.7372 25.7617 51.6968 25.7464C51.6565 25.7311 51.6134 25.7241 51.5703 25.7258H50.8656C50.7693 25.7352 50.6796 25.7794 50.6136 25.8501C50.5475 25.9209 50.5096 26.0134 50.5069 26.1102V26.9558V26.943ZM50.8528 26.1614C50.8505 26.1362 50.8541 26.1108 50.8631 26.0871C50.8722 26.0634 50.8865 26.0421 50.9051 26.0248C50.9236 26.0075 50.9458 25.9946 50.9701 25.9872C50.9943 25.9798 51.02 25.9781 51.045 25.9821H51.3525C51.4047 25.982 51.455 26.0018 51.4931 26.0375C51.5312 26.0732 51.5542 26.1221 51.5575 26.1743V26.9046C51.5575 26.9555 51.5373 27.0044 51.5012 27.0405C51.4652 27.0765 51.4163 27.0968 51.3653 27.0968H51.0066C50.9041 27.0968 50.8528 27.0968 50.8528 26.943V26.5458V26.1614ZM50.5966 29.6208V29.2493H51.5447V28.7752H50.5966V28.4293H52.2494V27.9552H50.0328V30.1461H52.2878V29.6208H50.5966ZM42.4094 27.3914H43.3447V27.1352H42.5503C42.5136 27.1357 42.4779 27.1231 42.4497 27.0996C42.4215 27.0761 42.4027 27.0433 42.3966 27.0071C42.3902 26.8918 42.3902 26.7764 42.3966 26.6611H43.3575V26.4049H42.3966V26.1871C42.3966 26.0205 42.4606 25.9693 42.6272 25.9693H43.3575V25.7002H42.4094C42.1916 25.7002 42.0763 25.8027 42.0763 26.0205V27.0199C42.0658 27.0675 42.0669 27.1169 42.0793 27.164C42.0917 27.2112 42.1151 27.2547 42.1477 27.291C42.1802 27.3273 42.2209 27.3553 42.2664 27.3728C42.3119 27.3902 42.3609 27.3966 42.4094 27.3914ZM46.5734 29.6721H45.2922V27.9936H44.69V29.8514C44.6884 29.9197 44.7105 29.9863 44.7525 30.0401C44.7946 30.0938 44.854 30.1313 44.9206 30.1461C44.9926 30.1594 45.0664 30.1594 45.1384 30.1461H46.7784C46.8334 30.1482 46.8882 30.1385 46.939 30.1177C46.9899 30.0968 47.0357 30.0653 47.0734 30.0252C47.111 29.9851 47.1396 29.9374 47.1573 29.8854C47.1749 29.8333 47.1812 29.778 47.1756 29.7233V28.0064H46.5606L46.5734 29.6721ZM44.485 28.8521V28.3396C44.4892 28.292 44.4827 28.244 44.4659 28.1993C44.4492 28.1545 44.4227 28.1141 44.3883 28.0809C44.3539 28.0477 44.3125 28.0227 44.2671 28.0076C44.2218 27.9925 44.1737 27.9877 44.1263 27.9936H42.3581C42.1531 27.9936 42.0763 28.0577 42.0763 28.2627V29.7105C42.07 29.7401 42.07 29.7706 42.0763 29.8002C42.0859 29.9055 42.1346 30.0035 42.2129 30.0746C42.2912 30.1458 42.3933 30.185 42.4991 30.1846H44.1775C44.2165 30.1907 44.2564 30.1878 44.294 30.176C44.3317 30.1643 44.3662 30.1439 44.3947 30.1166C44.4232 30.0894 44.445 30.0559 44.4585 30.0187C44.4719 29.9816 44.4766 29.9419 44.4722 29.9027V29.2877H43.9084V29.6977H42.6272V28.5446H43.9084V28.8905L44.485 28.8521ZM49.4819 27.9936H47.4063V30.1846H49.2128C49.3476 30.182 49.4813 30.1604 49.61 30.1205C49.6697 30.103 49.7214 30.0653 49.7565 30.0139C49.7915 29.9625 49.8077 29.9006 49.8022 29.8386V29.3133C49.805 29.2634 49.7916 29.2139 49.7638 29.1723C49.7361 29.1307 49.6956 29.0993 49.6484 29.0827C49.7766 29.0827 49.815 29.0186 49.815 28.8905V28.378C49.8363 28.3292 49.8433 28.2754 49.8352 28.2229C49.8272 28.1703 49.8044 28.121 49.7696 28.0808C49.7348 28.0406 49.6892 28.0111 49.6383 27.9957C49.5874 27.9802 49.5332 27.9795 49.4819 27.9936ZM48.0213 28.4293H48.0853C48.4441 28.4293 48.79 28.4293 49.1359 28.4293C49.2128 28.4293 49.2384 28.4293 49.2384 28.5318V28.7496C49.2384 28.8521 49.2384 28.8649 49.1231 28.8649H48.0213V28.4293ZM49.1488 29.7105H48.0213V29.3261H49.1359C49.2128 29.3261 49.2384 29.3261 49.2384 29.4158V29.6208C49.2384 29.6464 49.2128 29.6721 49.1488 29.6721V29.7105ZM31.6853 26.1871V26.2511L32.2619 27.3146H32.3259H32.6334V25.7643H32.2875V26.7124V26.6483C32.1338 26.3793 31.98 26.0974 31.8391 25.8155C31.8184 25.8076 31.7956 25.8076 31.775 25.8155H31.3906V27.4427H31.6853V26.1871ZM33.5303 29.6721C33.5303 29.4158 33.5303 29.1596 33.5303 28.9033C33.5303 28.9033 33.5303 28.9033 33.5303 28.8264H32.1466V29.3261H32.9538V29.6464H31.5316V28.4933H33.4791V28.0321H31.2881C31.2094 28.0345 31.1334 28.0618 31.0713 28.1102C31.0091 28.1585 30.9639 28.2254 30.9422 28.3011C30.9287 28.3645 30.9287 28.43 30.9422 28.4933V29.7746C30.936 29.8127 30.936 29.8517 30.9422 29.8899C30.9949 29.9998 31.0763 30.0935 31.1778 30.1611C31.2792 30.2288 31.397 30.2678 31.5188 30.2743H32.9538C33.0171 30.2778 33.0806 30.2683 33.1401 30.2463C33.1996 30.2242 33.254 30.1901 33.2997 30.1461L33.4663 29.9668C33.4964 29.9295 33.5177 29.8861 33.5288 29.8395C33.5399 29.7929 33.5404 29.7445 33.5303 29.6977V29.6721ZM39.9366 29.2621H41V28.788H40.0519V28.4421H41.6919V27.968H39.3728V30.1461H41.6278V29.6336H39.9878L39.9366 29.2621ZM38.5016 27.9808C38.3478 28.2627 38.1813 28.5318 38.0147 28.8136C37.8481 29.0955 37.7713 29.2108 37.6431 29.4286C37.6395 29.4031 37.6395 29.3772 37.6431 29.3518C37.3997 28.9418 37.1434 28.5446 36.9128 28.1346C36.8892 28.0619 36.8393 28.0007 36.773 27.9628C36.7067 27.9249 36.6286 27.9131 36.5541 27.9296C36.4431 27.936 36.3319 27.936 36.2209 27.9296V29.5952V29.5055L35.3113 27.9936C35.3113 27.9936 35.2472 27.9296 35.1831 27.9296C35.0682 27.9424 34.9522 27.9424 34.8372 27.9296C34.8119 27.9263 34.7862 27.9306 34.7633 27.942C34.7405 27.9534 34.7216 27.9714 34.7091 27.9936L33.4278 30.0564H35.0294V29.5439H34.3759C34.5809 29.2236 34.7731 28.9033 34.9653 28.5702V28.6471L35.7725 30.0052C35.7785 30.0267 35.7924 30.0452 35.8113 30.0571C35.8303 30.0689 35.853 30.0733 35.875 30.0693H36.7719V28.993C36.7927 28.9862 36.8151 28.9862 36.8359 28.993L37.3869 29.9411C37.3929 29.9627 37.4068 29.9812 37.4257 29.993C37.4447 30.0049 37.4674 30.0092 37.4894 30.0052H37.8353C37.8509 30.0142 37.8686 30.0189 37.8866 30.0189C37.9046 30.0189 37.9222 30.0142 37.9378 30.0052L38.5144 29.0314V28.9674V30.0436H39.0653V27.9936H38.5784C38.5652 28.0079 38.5563 28.0257 38.5528 28.0449L38.5016 27.9808Z" fill="#E4E9F6"/>
<path fill-rule="evenodd" clip-rule="evenodd" d="M15.375 35.4631C14.5639 35.4757 13.7746 35.7279 13.1065 36.188C12.4383 36.6481 11.9212 37.2956 11.6201 38.0488C11.319 38.8021 11.2474 39.6276 11.4143 40.4215C11.5811 41.2154 11.9791 41.9422 12.558 42.5105C13.137 43.0787 13.871 43.4631 14.6679 43.6152C15.4647 43.7674 16.2887 43.6804 17.0363 43.3654C17.7839 43.0504 18.4216 42.5213 18.8692 41.8447C19.3168 41.1681 19.5543 40.3743 19.5519 39.5631C19.5469 39.0196 19.4348 38.4824 19.2222 37.9823C19.0096 37.4821 18.7005 37.0287 18.3126 36.648C17.9248 36.2672 17.4657 35.9666 16.9617 35.7633C16.4576 35.56 15.9185 35.458 15.375 35.4631Z" fill="#EEB21E"/>
<path d="M52.2366 0.818359V14.4124C52.2366 14.9663 52.0165 15.4975 51.6249 15.8892C51.2332 16.2808 50.702 16.5009 50.1481 16.5009C49.5942 16.5009 49.063 16.2808 48.6714 15.8892C48.2797 15.4975 48.0597 14.9663 48.0597 14.4124V10.0177C48.0597 9.05268 47.6763 8.12715 46.9939 7.44475C46.3115 6.76235 45.386 6.37899 44.4209 6.37899H44.2288C43.2659 6.38238 42.3437 6.76724 41.664 7.44927C40.9844 8.1313 40.6028 9.0549 40.6028 10.0177V21.7155H42.1403V10.0177C42.1403 9.46385 42.3603 8.93265 42.752 8.54099C43.1437 8.14933 43.6749 7.9293 44.2288 7.9293H44.4209C44.9748 7.9293 45.506 8.14933 45.8977 8.54099C46.2893 8.93265 46.5094 9.46385 46.5094 10.0177V14.4124C46.48 14.9076 46.5521 15.4035 46.7213 15.8698C46.8906 16.336 47.1533 16.7628 47.4935 17.1238C47.8337 17.4848 48.2441 17.7724 48.6995 17.969C49.1549 18.1656 49.6457 18.267 50.1417 18.267C50.6377 18.267 51.1285 18.1656 51.5839 17.969C52.0393 17.7724 52.4497 17.4848 52.7899 17.1238C53.1301 16.7628 53.3929 16.336 53.5621 15.8698C53.7314 15.4035 53.8035 14.9076 53.7741 14.4124V0.818359H52.2366Z" fill="#252C3C"/>
</svg>
