<svg width="28" height="28" viewBox="0 0 28 28" fill="none" xmlns="http://www.w3.org/2000/svg">
<path d="M13.9962 6.81652C10.0211 6.81652 6.81302 10.0246 6.81302 13.9997C6.81302 17.9749 10.0211 21.183 13.9962 21.183C17.9713 21.183 21.1795 17.9749 21.1795 13.9997C21.1795 10.0246 17.9713 6.81652 13.9962 6.81652ZM13.9962 18.6683C11.4255 18.6683 9.32767 16.5704 9.32767 13.9997C9.32767 11.4291 11.4255 9.33117 13.9962 9.33117C16.5669 9.33117 18.6648 11.4291 18.6648 13.9997C18.6648 16.5704 16.5669 18.6683 13.9962 18.6683ZM21.4736 4.84823C20.5455 4.84823 19.796 5.59772 19.796 6.52583C19.796 7.45394 20.5455 8.20343 21.4736 8.20343C22.4018 8.20343 23.1513 7.45744 23.1513 6.52583C23.1515 6.30545 23.1083 6.08717 23.0241 5.88351C22.9399 5.67985 22.8163 5.4948 22.6605 5.33897C22.5047 5.18313 22.3196 5.05957 22.116 4.97536C21.9123 4.89115 21.694 4.84795 21.4736 4.84823ZM27.9984 13.9997C27.9984 12.0665 28.0159 10.1507 27.9074 8.22094C27.7988 5.97947 27.2875 3.99016 25.6484 2.35109C24.0058 0.708506 22.02 0.200673 19.7785 0.0921015C17.8453 -0.0164698 15.9295 0.00104174 13.9997 0.00104174C12.0665 0.00104174 10.1507 -0.0164698 8.22094 0.0921015C5.97947 0.200673 3.99016 0.712009 2.35109 2.35109C0.708507 3.99366 0.200673 5.97947 0.0921015 8.22094C-0.0164698 10.1542 0.00104174 12.07 0.00104174 13.9997C0.00104174 15.9295 -0.0164698 17.8488 0.0921015 19.7785C0.200673 22.02 0.712009 24.0093 2.35109 25.6484C3.99367 27.291 5.97947 27.7988 8.22094 27.9074C10.1542 28.0159 12.07 27.9984 13.9997 27.9984C15.933 27.9984 17.8488 28.0159 19.7785 27.9074C22.02 27.7988 24.0093 27.2875 25.6484 25.6484C27.291 24.0058 27.7988 22.02 27.9074 19.7785C28.0195 17.8488 27.9984 15.933 27.9984 13.9997ZM24.9164 22.2582C24.6607 22.8956 24.3525 23.3719 23.8587 23.8622C23.3649 24.356 22.8921 24.6642 22.2547 24.9199C20.4125 25.6519 16.0381 25.4873 13.9962 25.4873C11.9544 25.4873 7.57652 25.6519 5.73431 24.9234C5.09689 24.6677 4.62058 24.3595 4.13025 23.8657C3.63643 23.3719 3.32823 22.8991 3.07256 22.2617C2.34408 20.416 2.50869 16.0416 2.50869 13.9997C2.50869 11.9579 2.34408 7.58002 3.07256 5.73781C3.32823 5.10039 3.63643 4.62408 4.13025 4.13376C4.62408 3.64344 5.09689 3.33173 5.73431 3.07606C7.57652 2.34758 11.9544 2.51219 13.9962 2.51219C16.0381 2.51219 20.416 2.34758 22.2582 3.07606C22.8956 3.33173 23.3719 3.63993 23.8622 4.13376C24.356 4.62758 24.6642 5.10039 24.9199 5.73781C25.6484 7.58002 25.4838 11.9579 25.4838 13.9997C25.4838 16.0416 25.6484 20.416 24.9164 22.2582Z" fill="white"/>
</svg>
