<svg width="296" height="44" viewBox="0 0 296 44" fill="none" xmlns="http://www.w3.org/2000/svg">
<path d="M36.0976 3.61035H7.21957V7.22011L17.7059 15.0894C14.5234 16.1388 11.8879 18.4089 10.3784 21.4007C8.86896 24.3925 8.60918 27.8612 9.65616 31.0445C10.1741 32.6214 10.9979 34.0807 12.0804 35.339C13.1629 36.5972 14.4829 37.6297 15.9648 38.3774C17.4467 39.125 19.0614 39.5732 20.7167 39.6962C22.3719 39.8192 24.0352 39.6146 25.6113 39.0943C28.139 38.2634 30.3399 36.6558 31.9001 34.5006C33.4604 32.3454 34.3004 29.7525 34.3004 27.0918C34.3004 24.4311 33.4604 21.8383 31.9001 19.683C30.3399 17.5278 28.139 15.9202 25.6113 15.0894L36.0976 7.22011V3.61035ZM26.9649 35.1957L21.6586 32.0913L16.3523 35.1957L17.7601 29.1855L13.0854 25.1425L19.2401 24.6191L21.6586 18.9518L24.0771 24.6191L30.2318 25.1425L25.5571 29.1855L26.9649 35.1957Z" fill="#D4AF37"/>
<path d="M137.171 3.61035H108.293V7.22011L118.779 15.0894C115.597 16.1388 112.961 18.4089 111.452 21.4007C109.942 24.3925 109.682 27.8612 110.729 31.0445C111.247 32.6214 112.071 34.0807 113.154 35.339C114.236 36.5972 115.556 37.6297 117.038 38.3774C118.52 39.125 120.135 39.5732 121.79 39.6962C123.445 39.8192 125.108 39.6146 126.684 39.0943C129.212 38.2634 131.413 36.6558 132.973 34.5006C134.534 32.3454 135.374 29.7525 135.374 27.0918C135.374 24.4311 134.534 21.8383 132.973 19.683C131.413 17.5278 129.212 15.9202 126.684 15.0894L137.171 7.22011V3.61035ZM128.038 35.1957L122.732 32.0913L117.425 35.1957L118.833 29.1855L114.159 25.1425L120.313 24.6191L122.732 18.9518L125.15 24.6191L131.305 25.1425L126.63 29.1855L128.038 35.1957Z" fill="#9F7A31"/>
<path d="M238.244 3.61035H209.366V7.22011L219.852 15.0894C216.67 16.1388 214.034 18.4089 212.525 21.4007C211.015 24.3925 210.755 27.8612 211.802 31.0445C212.32 32.6214 213.144 34.0807 214.227 35.339C215.309 36.5972 216.629 37.6297 218.111 38.3774C219.593 39.125 221.208 39.5732 222.863 39.6962C224.518 39.8192 226.181 39.6146 227.758 39.0943C230.285 38.2634 232.486 36.6558 234.046 34.5006C235.607 32.3454 236.447 29.7525 236.447 27.0918C236.447 24.4311 235.607 21.8383 234.046 19.683C232.486 17.5278 230.285 15.9202 227.758 15.0894L238.244 7.22011V3.61035ZM229.111 35.1957L223.805 32.0913L218.499 35.1957L219.906 29.1855L215.232 25.1425L221.386 24.6191L223.805 18.9518L226.223 24.6191L232.378 25.1425L227.703 29.1855L229.111 35.1957Z" fill="#D7E8FE"/>
<path d="M86.6342 3.61035H57.7561V7.22011L68.2424 15.0894C65.06 16.1388 62.4244 18.4089 60.9149 21.4007C59.4055 24.3925 59.1457 27.8612 60.1927 31.0445C60.7107 32.6214 61.5345 34.0807 62.617 35.339C63.6995 36.5972 65.0194 37.6297 66.5013 38.3774C67.9832 39.125 69.5979 39.5732 71.2532 39.6962C72.9084 39.8192 74.5717 39.6146 76.1478 39.0943C78.6755 38.2634 80.8764 36.6558 82.4367 34.5006C83.9969 32.3454 84.837 29.7525 84.837 27.0918C84.837 24.4311 83.9969 21.8383 82.4367 19.683C80.8764 17.5278 78.6755 15.9202 76.1478 15.0894L86.6342 7.22011V3.61035ZM77.5015 35.1957L72.1951 32.0913L66.8888 35.1957L68.2966 29.1855L63.622 25.1425L69.7766 24.6191L72.1951 18.9518L74.6137 24.6191L80.7683 25.1425L76.0937 29.1855L77.5015 35.1957Z" fill="#AAA9AD"/>
<path d="M187.707 3.61035H158.829V7.22011L169.316 15.0894C166.133 16.1388 163.498 18.4089 161.988 21.4007C160.479 24.3925 160.219 27.8612 161.266 31.0445C161.784 32.6214 162.608 34.0807 163.69 35.339C164.773 36.5972 166.093 37.6297 167.574 38.3774C169.056 39.125 170.671 39.5732 172.326 39.6962C173.982 39.8192 175.645 39.6146 177.221 39.0943C179.749 38.2634 181.95 36.6558 183.51 34.5006C185.07 32.3454 185.91 29.7525 185.91 27.0918C185.91 24.4311 185.07 21.8383 183.51 19.683C181.95 17.5278 179.749 15.9202 177.221 15.0894L187.707 7.22011V3.61035ZM178.575 35.1957L173.268 32.0913L167.962 35.1957L169.37 29.1855L164.695 25.1425L170.85 24.6191L173.268 18.9518L175.687 24.6191L181.841 25.1425L177.167 29.1855L178.575 35.1957Z" fill="#D7E8FE"/>
<path d="M288.781 3.61035H259.902V7.22011L270.389 15.0894C267.206 16.1388 264.571 18.4089 263.061 21.4007C261.552 24.3925 261.292 27.8612 262.339 31.0445C262.857 32.6214 263.681 34.0807 264.763 35.339C265.846 36.5972 267.166 37.6297 268.648 38.3774C270.13 39.125 271.744 39.5732 273.4 39.6962C275.055 39.8192 276.718 39.6146 278.294 39.0943C280.822 38.2634 283.023 36.6558 284.583 34.5006C286.143 32.3454 286.983 29.7525 286.983 27.0918C286.983 24.4311 286.143 21.8383 284.583 19.683C283.023 17.5278 280.822 15.9202 278.294 15.0894L288.781 7.22011V3.61035ZM279.648 35.1957L274.341 32.0913L269.035 35.1957L270.443 29.1855L265.768 25.1425L271.923 24.6191L274.341 18.9518L276.76 24.6191L282.915 25.1425L278.24 29.1855L279.648 35.1957Z" fill="#D7E8FE"/>
</svg>
