<svg width="22" height="20" viewBox="0 0 22 20" fill="none" xmlns="http://www.w3.org/2000/svg">
<path d="M3.61975 0L2.56082 1.05742L4.13643 2.63227L5.19385 1.57485L3.619 0H3.61975ZM17.4392 0L15.8636 1.57485L16.9217 2.63227L18.4966 1.05817L17.4384 0H17.4392ZM10.5291 0.469296C10.2809 0.472305 10.0297 0.486594 9.77701 0.51743C9.76949 0.51743 9.76197 0.515925 9.75445 0.51743C6.70402 0.867146 4.27631 3.3317 3.8544 6.36859C3.51747 8.81284 4.52525 11.0292 6.20464 12.4567C6.89159 13.0429 7.35625 13.8474 7.52078 14.7355V19.2479H9.23551C9.49724 19.6969 9.9748 20 10.5291 20C11.0834 20 11.5609 19.6969 11.8227 19.2479H13.5374V16.2396H13.6081V15.3461C13.6081 14.2436 14.1812 13.132 15.1122 12.2679C16.3577 11.0209 17.2978 9.2498 17.2978 7.21543C17.2978 3.50017 14.2398 0.434701 10.5291 0.469296ZM10.5291 1.97345C13.4359 1.93284 15.7936 4.31241 15.7936 7.21543C15.7936 8.79028 15.0641 10.1771 14.0541 11.1864L14.0781 11.2105C13.0744 12.1361 12.4254 13.3831 12.2431 14.7362H8.95348C8.78803 13.4471 8.23525 12.1995 7.19061 11.3045C5.86169 10.1764 5.06976 8.47667 5.33449 6.55736C5.66314 4.18832 7.58545 2.28331 9.94096 2.02234C10.1354 1.99522 10.3313 1.97915 10.5276 1.9742L10.5291 1.97345ZM0 7.21543V8.71959H2.25623V7.21543H0ZM18.8019 7.21543V8.71959H21.0582V7.21543H18.8019ZM4.13643 13.3027L2.56158 14.8768L3.61975 15.935L5.1931 14.3602L4.13643 13.3027ZM16.9217 13.3027L15.8643 14.3602L17.4384 15.935L18.4966 14.8768L16.9217 13.3027ZM9.02493 16.2404H12.0332V17.7445H9.02493V16.2404Z" fill="#A4A4A4"/>
</svg>
