<svg width="25" height="25" viewBox="0 0 25 25" fill="none" xmlns="http://www.w3.org/2000/svg">
<path d="M23.1985 12.6836H21.9853C21.9118 10.4409 21.1029 8.41889 19.7794 6.76448L18.1618 8.38212C19.1544 9.66889 19.7426 11.2865 19.7426 13.0512C19.7426 17.3527 16.25 20.8086 11.9853 20.8086C7.68382 20.8086 4.22794 17.3159 4.22794 13.0512C4.22794 8.78653 7.72059 5.29389 11.9853 5.29389C13.7132 5.29389 15.3309 5.88212 16.6176 6.83801L18.2353 5.22036C16.6176 3.93359 14.5588 3.12477 12.3529 3.05124V1.80124C12.3529 1.58065 12.2059 1.43359 11.9853 1.43359C11.7647 1.43359 11.6176 1.58065 11.6176 1.80124V3.01448C6.39706 3.1983 2.16912 7.42624 1.98529 12.6836H0.735292C0.514704 12.6836 0.367645 12.8307 0.367645 13.0512C0.367645 13.2718 0.514704 13.4189 0.735292 13.4189H1.94853C2.13235 18.6395 6.36029 22.8674 11.5809 23.0512V24.2645C11.5809 24.4851 11.7279 24.6321 11.9485 24.6321C12.1691 24.6321 12.3162 24.4851 12.3162 24.2645V23.0512C17.5368 22.8674 21.7647 18.6395 21.9485 13.4189H23.1618C23.3824 13.4189 23.5294 13.2718 23.5294 13.0512C23.5294 12.8307 23.4191 12.6836 23.1985 12.6836Z" fill="#A4A4A4"/>
<path d="M11.9853 11.4707C11.1397 11.4707 10.4044 12.1692 10.4044 13.0516C10.4044 13.8972 11.1029 14.6325 11.9853 14.6325C12.8309 14.6325 13.5662 13.9339 13.5662 13.0516L12.7941 13.8236C12.3529 14.2648 11.6544 14.2648 11.2132 13.8236C10.7721 13.3825 10.7721 12.7207 11.2132 12.2795L11.9853 11.4707Z" fill="#A4A4A4"/>
<path d="M16.1029 7.35283C14.9632 6.50724 13.5294 6.0293 11.9853 6.0293C8.12499 6.0293 4.96323 9.19106 4.96323 13.0514C4.96323 16.9116 8.12499 20.0734 11.9853 20.0734C15.8823 20.0734 19.0073 16.9116 19.0073 13.0514C19.0073 11.5072 18.4926 10.0734 17.6471 8.89694L16.5441 9.99989C17.1323 10.8822 17.4632 11.9116 17.4632 13.0514C17.4632 16.1028 15 18.5661 11.9485 18.5661C8.89705 18.5661 6.43381 16.1028 6.43381 13.0514C6.43381 9.99989 8.89705 7.53665 11.9485 7.53665C13.0515 7.53665 14.1176 7.86753 15 8.45577L16.1029 7.35283Z" fill="#A4A4A4"/>
<path d="M12.6103 10.845L14.4853 8.97001C13.75 8.52884 12.9044 8.27148 11.9853 8.27148C9.33822 8.27148 7.20587 10.4038 7.20587 13.0509C7.20587 15.698 9.33822 17.8303 11.9853 17.8303C14.6323 17.8303 16.7647 15.698 16.7647 13.0509C16.7647 12.1318 16.5073 11.2862 16.0662 10.5509L14.1912 12.4259C14.2647 12.6465 14.3015 12.8671 14.3015 13.0877C14.3015 14.3744 13.272 15.4038 11.9853 15.4038C10.7353 15.4038 9.66911 14.3744 9.66911 13.0877C9.66911 11.8009 10.6985 10.7715 11.9853 10.7715C12.2059 10.7347 12.4265 10.7715 12.6103 10.845Z" fill="#A4A4A4"/>
<path d="M24.375 2.86795L22.7206 2.24295L22.0956 0.588541C21.9853 0.331188 21.6544 0.294423 21.4706 0.441482L18.9338 3.01501C18.8235 3.12531 18.7868 3.27236 18.8603 3.41942L19.4485 4.96354L11.7279 12.7577C11.5809 12.9047 11.5809 13.1253 11.7279 13.2724C11.8015 13.3459 11.9118 13.3827 11.9853 13.3827C12.0956 13.3827 12.1691 13.3459 12.2426 13.2724L20 5.51501L21.5809 6.14001C21.7279 6.17678 21.875 6.14001 21.9853 6.06648L24.5221 3.49295C24.7059 3.27236 24.6324 2.97825 24.375 2.86795Z" fill="#A4A4A4"/>
</svg>
