<svg width="72" height="72" viewBox="0 0 72 72" fill="none" xmlns="http://www.w3.org/2000/svg">
<g clip-path="url(#clip0)">
<path d="M1.40625 1.40625H70.5938V48.8419H1.40625V1.40625Z" fill="#26A69A"/>
<path d="M69.1875 2.8125V47.4356H2.8125V2.8125H69.1875ZM72 0H0V50.2481H72V0Z" fill="#5D4037"/>
<path d="M4.5 66.3915V71.9996H53.5163V66.3915C53.5163 57.8584 41.4844 53.5271 29.1938 53.544C16.9819 53.5552 4.5 57.3521 4.5 66.3915Z" fill="#546E7A"/>
<path d="M25.1939 59.1807H32.8721L28.9458 75.6844L25.1939 59.1807Z" fill="#455A64"/>
<path d="M28.9798 50.7266H23.8723V56.1209C23.8723 58.5622 25.9535 60.5422 28.5185 60.5422H29.4466C32.0116 60.5422 34.0929 58.5622 34.0929 56.1209V50.7266H28.9798Z" fill="#7A4C32"/>
<path d="M47.1153 29.3291C47.1153 29.3291 50.4284 29.9029 50.4284 33.4747C50.4284 36.6247 48.0097 37.8679 45.5909 37.8679V29.3291H47.1153Z" fill="#7A4C32"/>
<path d="M10.9575 29.3291C10.9575 29.3291 7.64435 29.9029 7.64435 33.4747C7.64435 36.6247 10.0631 37.8679 12.4818 37.8679V29.3291H10.9575Z" fill="#7A4C32"/>
<path d="M29.0363 5.94531C14.7488 5.94531 11.0138 17.0209 11.0138 32.5797C11.0138 48.7122 21.3807 52.8859 29.0363 52.8859C36.5794 52.8859 47.0588 48.8359 47.0588 32.5797C47.0588 17.0209 43.3182 5.94531 29.0363 5.94531Z" fill="#9B643C"/>
<path d="M23.0963 34.0261C23.0963 35.6348 22.022 36.9342 20.6888 36.9342C19.3613 36.9342 18.2757 35.6292 18.2757 34.0261C18.2757 32.4173 19.3557 31.1123 20.6888 31.1123C22.022 31.1123 23.0963 32.4117 23.0963 34.0261Z" fill="#444444"/>
<path d="M34.965 34.0261C34.965 35.6348 36.0394 36.9342 37.3781 36.9342C38.7056 36.9342 39.7857 35.6292 39.7857 34.0261C39.7857 32.4173 38.7056 31.1123 37.3781 31.1123C36.045 31.1123 34.965 32.4117 34.965 34.0261Z" fill="#444444"/>
<path d="M34.2504 43.8525H29.036H23.8216C23.2254 43.8525 22.9666 44.2519 23.3604 44.8594C23.9116 45.7032 25.9704 47.3232 29.036 47.3232C32.1016 47.3232 34.1604 45.7032 34.7116 44.8594C35.1054 44.2519 34.8466 43.8525 34.2504 43.8525Z" fill="#42312C"/>
<path d="M31.5561 39.4197C30.6674 39.6728 29.7449 39.7909 29.0361 39.7909C28.3274 39.7909 27.4049 39.6672 26.5161 39.4197C26.1393 39.3128 25.9874 39.6728 26.1224 39.909C26.4036 40.404 27.5399 41.4053 29.0361 41.4053C30.5324 41.4053 31.6686 40.404 31.9499 39.909C32.0849 39.6672 31.933 39.3072 31.5561 39.4197Z" fill="#7A4C32"/>
<path d="M29.4633 3.9154C29.4633 3.9154 29.1821 3.90415 29.0639 3.90978C28.9458 3.90978 28.6646 3.9154 28.6646 3.9154C13.2464 4.21353 8.60019 13.4892 8.60019 19.9185C8.60019 26.1679 8.60581 30.7635 8.60581 30.7635C8.60581 30.7635 8.85331 30.5104 9.30331 30.156C9.78706 29.7792 10.3214 29.571 10.3214 29.571L11.0977 34.791L16.2333 24.0585C16.2671 23.991 16.3346 23.9517 16.4077 23.9629L19.4508 24.3004C22.5108 24.6379 25.5877 24.8067 28.6589 24.8123V24.8179C28.7939 24.8179 28.9233 24.8123 29.0583 24.8123C29.1933 24.8123 29.3227 24.8179 29.4577 24.8179V24.8067C32.5289 24.7954 35.6058 24.6323 38.6658 24.2948L41.7089 23.9573C41.7821 23.9517 41.8496 23.991 41.8833 24.0529L47.0189 34.7854L47.7952 29.5654C47.7952 29.5654 48.3296 29.7792 48.8133 30.1504C49.2689 30.5048 49.5108 30.7579 49.5108 30.7579C49.5108 30.7579 49.5164 26.1679 49.5164 19.9129C49.5277 13.4892 44.8814 4.21353 29.4633 3.9154Z" fill="#47352D"/>
<path d="M23.1014 34.1215C23.1014 35.719 22.0327 37.0184 20.7052 37.0184C19.3833 37.0184 18.3033 35.7246 18.3033 34.1215C18.3033 32.5184 19.3777 31.2246 20.7052 31.2246C22.0327 31.2246 23.1014 32.5184 23.1014 34.1215Z" fill="#42312C"/>
<path d="M34.9137 34.1215C34.9137 35.719 35.9824 37.0184 37.3156 37.0184C38.6374 37.0184 39.7118 35.7246 39.7118 34.1215C39.7118 32.5184 38.6374 31.2246 37.3156 31.2246C35.9824 31.2246 34.9137 32.5184 34.9137 34.1215Z" fill="#42312C"/>
<path d="M17.6903 64.4003L22.0834 60.9241L16.8466 58.8428L23.8103 53.3359L28.9459 75.6841L17.6903 64.4003Z" fill="#E0E0E0"/>
<path d="M35.8992 60.8566L40.3823 64.4003L28.9467 75.6841L34.2623 53.3359L41.2261 58.8428L35.8992 60.8566Z" fill="#E0E0E0"/>
<path d="M22.8152 28.7822H16.1496C15.9583 28.7822 15.7671 28.7991 15.5815 28.8216C16.0202 28.8947 16.3971 29.131 16.6446 29.4572H22.8096C24.7502 29.4572 26.3308 30.9197 26.3308 32.7197V35.9204C26.3308 37.7204 24.7502 39.1829 22.8096 39.1829H16.1496C14.209 39.1829 12.6283 37.7204 12.6283 35.9204V33.1697H12.1333C12.0546 33.1697 11.9758 33.1585 11.8971 33.1472V35.9204C11.8971 38.0916 13.804 39.8579 16.144 39.8579H22.8096C25.1496 39.8579 27.0565 38.0916 27.0565 35.9204V32.7197C27.0621 30.5485 25.1552 28.7822 22.8152 28.7822Z" fill="#231F20" stroke="#231F20" stroke-width="0.060125" stroke-miterlimit="10"/>
<path d="M15.5813 28.8221C15.4801 28.8052 15.3788 28.7939 15.2776 28.7939H12.1332C11.2107 28.7939 10.4513 29.4914 10.4513 30.3521V31.6177C10.4513 32.3996 11.0813 33.0464 11.8969 33.1533V32.7258C11.8969 30.7289 13.5057 29.0808 15.5813 28.8221Z" fill="black"/>
<path d="M12.6282 33.1704V32.7204C12.6282 30.9204 14.2089 29.4579 16.1495 29.4579H16.6501C16.4026 29.1316 16.0257 28.8954 15.587 28.8223C13.5114 29.081 11.9026 30.7291 11.9026 32.7204V33.1479C11.9814 33.1591 12.0545 33.1704 12.1389 33.1704H12.6282Z" fill="black" stroke="black" stroke-width="0.060125" stroke-miterlimit="10"/>
<path d="M34.9877 28.7822H41.6533C41.8446 28.7822 42.0358 28.7991 42.2215 28.8216C41.7827 28.8947 41.4058 29.131 41.1583 29.4572H34.9877C33.0471 29.4572 31.4665 30.9197 31.4665 32.7197V35.9204C31.4665 37.7204 33.0471 39.1829 34.9877 39.1829H41.6533C43.594 39.1829 45.1746 37.7204 45.1746 35.9204V33.1697H45.6696C45.7483 33.1697 45.8271 33.1585 45.9058 33.1472V35.9204C45.9058 38.0916 43.999 39.8579 41.659 39.8579H34.9877C32.6477 39.8579 30.7408 38.0916 30.7408 35.9204V32.7197C30.7408 30.5485 32.6421 28.7822 34.9877 28.7822Z" fill="#231F20" stroke="#231F20" stroke-width="0.060125" stroke-miterlimit="10"/>
<path d="M42.2215 28.8221C42.3227 28.8052 42.424 28.7939 42.5252 28.7939H45.6696C46.5921 28.7939 47.3515 29.4914 47.3515 30.3521V31.6177C47.3515 32.3996 46.7215 33.0464 45.9059 33.1533V32.7258C45.9002 30.7289 44.2971 29.0808 42.2215 28.8221Z" fill="black"/>
<path d="M45.1745 33.1694V32.7194C45.1745 30.9194 43.5939 29.4569 41.6532 29.4569H41.1526C41.4001 29.1307 41.777 28.8944 42.2157 28.8213C44.2914 29.08 45.9001 30.7282 45.9001 32.7194V33.1469C45.8214 33.1582 45.7482 33.1694 45.6639 33.1694H45.1745Z" fill="black" stroke="black" stroke-width="0.060125" stroke-miterlimit="10"/>
<path d="M31.1454 33.1699H26.5554L25.9367 30.2168H31.8204L31.1454 33.1699Z" fill="#231F20"/>
<path d="M59.5406 65.334L57.7068 64.9796L65.7787 26.8252H66.4818L59.5406 65.334Z" fill="#F15A29"/>
<path d="M57.1896 60.581C58.0334 60.7892 58.5734 61.3854 58.9502 62.1279C59.8896 61.9592 61.5096 61.7904 61.9821 61.8017C62.539 61.8185 63.2759 61.8804 63.3996 63.0223C63.4784 63.7648 63.1971 64.3779 62.2465 64.4679C61.8921 64.5017 61.5265 64.5242 61.1665 64.541L61.2959 64.9573C61.6277 64.9517 61.9259 64.9404 62.1565 64.9404C63.1184 64.9292 63.664 65.441 63.664 66.4592C63.664 67.3535 62.8934 67.7754 62.3309 67.8092C62.0327 67.826 61.2002 67.781 60.379 67.7023L60.2946 67.8767L60.2609 67.9273C60.7784 68.006 61.2734 68.0904 61.6221 68.1523C62.5615 68.321 63.0115 68.9454 62.9046 69.6879C62.7752 70.5879 61.9709 70.8354 61.414 70.8185C60.9977 70.8073 59.5352 70.5767 58.5565 70.3685L58.3652 70.6441C58.4327 70.6554 58.5059 70.6667 58.5846 70.6779C58.5959 70.6779 58.6071 70.6835 58.624 70.6835L58.8209 70.7173C58.8377 70.7173 58.849 70.7229 58.8659 70.7229C58.9446 70.7342 59.0234 70.751 59.1021 70.7623H59.1134C59.1977 70.7735 59.2821 70.7904 59.3665 70.8073C59.3834 70.8073 59.4002 70.8129 59.4115 70.8129L59.6084 70.8467C59.6365 70.8523 59.659 70.8579 59.6871 70.8579C59.7434 70.8692 59.7996 70.8804 59.8502 70.886L59.9346 70.9029C59.9909 70.9142 60.0415 70.9254 60.0921 70.931L60.1709 70.9479C60.244 70.9648 60.3227 70.976 60.3902 70.9929C61.2509 71.1729 61.5771 71.561 61.4702 72.2416C61.324 73.1979 60.3621 73.4117 59.8502 73.361C59.3384 73.316 57.6171 72.9617 57.0546 72.7142L56.9534 72.6635L56.7565 72.9448C54.2252 72.776 52.4084 71.7185 52.4084 71.7185C50.9234 70.886 50.6759 70.2448 50.4284 69.2267C50.1471 68.0679 50.2146 66.6954 50.2259 66.4817C50.3159 64.1754 50.8277 62.6848 52.6896 61.4473C53.1396 61.1492 53.7977 60.626 55.2546 60.4573C55.8227 60.401 56.6271 60.446 57.1896 60.581Z" fill="#9B643C"/>
<path d="M59.2991 64.4116C59.2991 64.4116 59.3216 63.2528 58.956 62.1278L59.361 62.0547C59.361 62.0547 59.6479 62.8534 59.7491 64.0347C59.766 64.2259 59.7716 64.4003 59.7716 64.5691L60.1316 64.5466L62.5447 64.4116C62.5447 64.4116 62.3647 64.4453 62.3647 64.7153C62.3647 64.8278 62.4322 64.9009 62.4829 64.9459C62.3816 64.9347 62.2691 64.9234 62.1566 64.9291L59.7604 64.9909C59.7547 65.0584 59.7547 65.1259 59.7491 65.1991C59.6929 66.1778 59.4622 67.1172 58.9166 67.4772C60.7279 67.6909 62.3366 67.7978 62.3366 67.7978C62.0216 67.9272 62.1566 68.3097 62.1566 68.3097C60.936 67.9778 57.9772 67.8034 57.9772 67.8034C56.7285 67.6966 56.5597 68.5403 56.5597 68.5403C56.3291 69.5584 57.4372 70.0253 57.4372 70.0253C57.5835 70.1097 58.9054 70.3741 59.8504 70.5541L60.7954 70.7284L61.0597 70.7791C61.0316 70.7734 60.9191 70.7678 60.8741 70.9534C60.8516 71.0434 60.8741 71.1053 60.891 71.1447C60.7504 71.0828 60.5816 71.0266 60.3847 70.9872C59.9404 70.8972 58.596 70.6778 58.4947 70.6609L58.1572 70.6159C57.0435 70.4697 56.7735 70.6666 56.7735 70.6666C56.1547 70.9928 56.3347 71.7803 56.3347 71.7803C56.4697 72.5397 57.3079 72.7759 57.3079 72.7759C57.6285 72.8716 59.3272 73.2822 59.3272 73.2822L56.7566 72.9447C56.5766 72.8884 56.5091 72.8041 56.4079 72.7253C55.5022 71.9828 55.8847 70.9759 55.8847 70.9759C56.0254 70.5878 56.3179 70.4134 56.3179 70.4134C56.4922 70.3066 56.6947 70.2503 56.9029 70.2278C55.851 69.6709 56.0197 68.5459 56.0197 68.5459C56.1547 67.8541 56.6554 67.5616 57.0491 67.4378C57.0154 67.4097 56.976 67.3816 56.9422 67.3478C56.9422 67.3478 56.2672 66.9034 56.5147 64.9966C56.5991 64.3553 56.5879 64.2653 56.5204 63.8603C56.5204 63.8603 56.2785 62.9941 55.5585 63.2697C55.5585 63.2697 55.3166 63.3316 54.9397 63.6297C54.9397 63.6297 54.636 63.8659 54.6416 63.4947C54.6416 63.3822 54.7204 63.1797 54.8722 63.0053C54.8722 63.0053 55.0297 62.8197 55.4179 62.7128C55.4179 62.7128 56.4247 62.3134 56.9254 63.3203C57.1897 63.8491 57.1391 64.1978 57.0547 64.7378C57.0547 64.7378 56.8972 66.4422 57.3416 66.9878C57.3416 66.9878 57.7804 67.4884 58.4835 67.1791C58.4891 67.1903 59.4454 66.6672 59.2991 64.4116Z" fill="#7A4C32"/>
</g>
<defs>
<clipPath id="clip0">
<rect width="72" height="72" fill="white"/>
</clipPath>
</defs>
</svg>
