<svg width="20" height="21" viewBox="0 0 20 21" fill="none" xmlns="http://www.w3.org/2000/svg">
<path d="M14.1176 12.7752V8.06934H5.88235V12.7752H0V20.0301H20V12.7752H14.1176ZM5.88235 18.8537H1.17647V13.9517H5.88235V18.8537ZM12.9412 18.8537H7.05882C7.05882 18.4131 7.05882 9.58859 7.05882 9.24581H12.9412V18.8537ZM18.8235 18.8537H14.1176V13.9517H18.8235V18.8537Z" fill="#A4A4A4"/>
<path d="M7.82552 6.69278L10.0001 5.53651L12.1746 6.69278L11.7471 4.26726L13.5187 2.55631L11.0798 2.21357L10.0001 0L8.92039 2.21357L6.48145 2.55631L8.25313 4.26726L7.82552 6.69278ZM9.70356 3.29157L10.0001 2.68361L10.2966 3.29157L10.9663 3.38569L10.4798 3.85549L10.5973 4.52157L10.0001 4.20404L9.4029 4.52157L9.52035 3.85549L9.03384 3.38569L9.70356 3.29157Z" fill="#A4A4A4"/>
<path d="M11.7648 13.9513H10.5883V10.4219H8.82359V11.5983H9.41182V13.9513H8.23535V15.1278H11.7648V13.9513Z" fill="#A4A4A4"/>
</svg>
