<svg width="20" height="20" viewBox="0 0 20 20" fill="none" xmlns="http://www.w3.org/2000/svg">
<path d="M19.697 9.26871L15.7957 5.36746C15.6997 5.2714 15.5856 5.19519 15.4601 5.1432C15.3346 5.09121 15.2001 5.06445 15.0642 5.06445C14.9284 5.06445 14.7938 5.09121 14.6683 5.1432C14.5428 5.19519 14.4288 5.2714 14.3327 5.36746C14.1387 5.56147 14.0297 5.82459 14.0297 6.09895C14.0297 6.37331 14.1387 6.63643 14.3327 6.83044L16.4681 8.96574H5.17242C4.89806 8.96574 4.63494 9.07473 4.44093 9.26873C4.24693 9.46273 4.13794 9.72586 4.13794 10.0002C4.13794 10.2746 4.24693 10.5377 4.44093 10.7317C4.63494 10.9257 4.89806 11.0347 5.17242 11.0347H16.4681L14.3327 13.17C14.1387 13.364 14.0297 13.6271 14.0297 13.9015C14.0297 14.1759 14.1387 14.439 14.3327 14.633C14.5267 14.827 14.7899 14.936 15.0642 14.936C15.3386 14.936 15.6017 14.827 15.7957 14.633L19.697 10.7317C19.891 10.5377 20 10.2746 20 10.0002C20 9.72584 19.891 9.46271 19.697 9.26871Z" fill="#A4A4A4"/>
<path d="M12.069 15.8621C11.7946 15.8621 11.5315 15.971 11.3375 16.1651C11.1435 16.3591 11.0345 16.6222 11.0345 16.8965V17.931H2.06896V2.06896H11.0345V3.10345C11.0345 3.37781 11.1435 3.64093 11.3375 3.83494C11.5315 4.02894 11.7946 4.13793 12.069 4.13793C12.3433 4.13793 12.6064 4.02894 12.8004 3.83494C12.9944 3.64093 13.1034 3.37781 13.1034 3.10345V1.72414C13.1034 1.49772 13.0588 1.27352 12.9722 1.06434C12.8856 0.855156 12.7586 0.665089 12.5985 0.504988C12.4384 0.344887 12.2483 0.217888 12.0391 0.131242C11.8299 0.0445961 11.6057 0 11.3793 0H1.72414C1.26687 0 0.828326 0.18165 0.504988 0.504988C0.18165 0.828326 0 1.26687 0 1.72414V18.2758C0 18.7331 0.18165 19.1717 0.504988 19.495C0.828326 19.8183 1.26687 20 1.72414 20H11.3793C11.6057 20 11.8299 19.9554 12.0391 19.8687C12.2483 19.7821 12.4384 19.6551 12.5985 19.495C12.7586 19.3349 12.8856 19.1448 12.9722 18.9356C13.0588 18.7265 13.1034 18.5023 13.1034 18.2758V16.8965C13.1034 16.6222 12.9944 16.3591 12.8004 16.1651C12.6064 15.971 12.3433 15.8621 12.069 15.8621Z" fill="#A4A4A4"/>
</svg>
