<svg width="134" height="24" viewBox="0 0 134 24" fill="none" xmlns="http://www.w3.org/2000/svg">
<path d="M12 0L14.6942 8.2918H23.4127L16.3593 13.4164L19.0534 21.7082L12 16.5836L4.94658 21.7082L7.64074 13.4164L0.587322 8.2918H9.30583L12 0Z" fill="#59C0D8"/>
<path d="M39.2937 0L41.9879 8.2918H50.7064L43.653 13.4164L46.3471 21.7082L39.2937 16.5836L32.2403 21.7082L34.9344 13.4164L27.881 8.2918H36.5995L39.2937 0Z" fill="#59C0D8"/>
<path d="M66.5872 0L69.2813 8.2918H77.9998L70.9464 13.4164L73.6406 21.7082L66.5872 16.5836L59.5337 21.7082L62.2279 13.4164L55.1745 8.2918H63.893L66.5872 0Z" fill="#59C0D8"/>
<path d="M93.8809 0L96.575 8.2918H105.294L98.2401 13.4164L100.934 21.7082L93.8809 16.5836L86.8274 21.7082L89.5216 13.4164L82.4682 8.2918H91.1867L93.8809 0Z" fill="#59C0D8"/>
<path d="M121.175 0L123.869 8.2918H132.587L125.534 13.4164L128.228 21.7082L121.175 16.5836L114.121 21.7082L116.815 13.4164L109.762 8.2918H118.48L121.175 0Z" fill="#59C0D8"/>
</svg>
