<svg width="20" height="26" viewBox="0 0 20 26" fill="none" xmlns="http://www.w3.org/2000/svg">
<path d="M4.35967 10.9484L6.69722 8.13618C6.82962 7.97688 6.80782 7.74048 6.64852 7.60808C6.48932 7.47573 6.25282 7.49753 6.12042 7.65678L4.11672 10.0673L3.67877 9.35593C3.57022 9.17958 3.33927 9.12453 3.16282 9.23318C2.98647 9.34178 2.93152 9.57278 3.04007 9.74908L3.75187 10.9052C3.88647 11.1237 4.19577 11.1456 4.35967 10.9484Z" fill="#A4A4A4"/>
<path d="M3.04011 14.6993L3.75191 15.8555C3.88641 16.074 4.19571 16.0958 4.35961 15.8986L6.69716 13.0864C6.82956 12.9271 6.80776 12.6907 6.64846 12.5583C6.48926 12.4259 6.25276 12.4477 6.12036 12.607L4.11666 15.0175L3.67871 14.3061C3.57016 14.1298 3.33921 14.0747 3.16276 14.1834C2.98646 14.292 2.93151 14.523 3.04011 14.6993Z" fill="#A4A4A4"/>
<path d="M3.04011 19.6827L3.75191 20.8389C3.88641 21.0574 4.19571 21.0792 4.35961 20.882L6.69716 18.0698C6.82956 17.9105 6.80776 17.6741 6.64846 17.5417C6.48926 17.4093 6.25276 17.4311 6.12036 17.5904L4.11666 20.0009L3.67871 19.2895C3.57016 19.1132 3.33921 19.0582 3.16276 19.1668C2.98646 19.2754 2.93151 19.5064 3.04011 19.6827Z" fill="#A4A4A4"/>
<path d="M19.625 21.1706C19.4179 21.1706 19.25 21.3385 19.25 21.5456V24.2754C19.25 24.5924 18.9921 24.8504 18.675 24.8504H1.325C1.00795 24.8504 0.75 24.5924 0.75 24.2754V7.84082C0.75 7.63367 0.5821 7.46582 0.375 7.46582C0.1679 7.46582 0 7.63367 0 7.84082V24.2754C0 25.006 0.5944 25.6004 1.325 25.6004H18.675C19.4056 25.6004 20 25.006 20 24.2754V21.5456C20 21.3385 19.8321 21.1706 19.625 21.1706Z" fill="#A4A4A4"/>
<path d="M18.675 2.88955H16.8406V1.34C16.8406 0.60115 16.2395 0 15.5006 0C14.7617 0 14.1606 0.6011 14.1606 1.34V2.88955H11.34V1.34C11.34 0.6011 10.7389 0 10 0C9.26115 0 8.66 0.6011 8.66 1.34V2.88955H5.83935V1.34C5.83935 0.60115 5.23825 0 4.49935 0C3.7605 0 3.15935 0.6011 3.15935 1.34V2.88955H1.325C0.5944 2.88955 0 3.48395 0 4.21455V6.09045C0 6.2976 0.1679 6.46545 0.375 6.46545C0.5821 6.46545 0.75 6.2976 0.75 6.09045V4.21455C0.75 3.8975 1.00795 3.63955 1.325 3.63955H3.15935V4.235C3.15935 4.97385 3.76045 5.575 4.49935 5.575C5.23825 5.575 5.83935 4.9739 5.83935 4.235V3.63955H8.66V4.235C8.66 4.97385 9.2611 5.575 10 5.575C10.7389 5.575 11.34 4.9739 11.34 4.235V3.63955H14.1607V4.235C14.1607 4.97385 14.7618 5.575 15.5007 5.575C16.2395 5.575 16.8407 4.9739 16.8407 4.235V3.63955H18.675C18.9921 3.63955 19.25 3.8975 19.25 4.21455V19.7952C19.25 20.0024 19.4179 20.1702 19.625 20.1702C19.8321 20.1702 20 20.0024 20 19.7952V4.21455C20 3.48395 19.4056 2.88955 18.675 2.88955ZM5.0894 4.235C5.0894 4.56035 4.82475 4.825 4.4994 4.825C4.1741 4.825 3.9094 4.56035 3.9094 4.235C3.9094 3.43565 3.9094 1.5902 3.9094 1.34C3.9094 1.01465 4.17405 0.75 4.4994 0.75C4.82475 0.75 5.0894 1.01465 5.0894 1.34V4.235ZM10.59 4.235C10.59 4.56035 10.3253 4.825 10 4.825C9.67465 4.825 9.41 4.56035 9.41 4.235C9.41 3.43565 9.41 1.5902 9.41 1.34C9.41 1.01465 9.67465 0.75 10 0.75C10.3253 0.75 10.59 1.01465 10.59 1.34V4.235ZM16.0907 4.235C16.0907 4.56035 15.826 4.825 15.5007 4.825C15.1753 4.825 14.9107 4.56035 14.9107 4.235C14.9107 3.43565 14.9107 1.5902 14.9107 1.34C14.9107 1.01465 15.1753 0.75 15.5007 0.75C15.826 0.75 16.0907 1.01465 16.0907 1.34V4.235Z" fill="#A4A4A4"/>
<path d="M8.28682 11.2592H16.1868C16.8347 11.2592 17.3618 10.7321 17.3618 10.0842C17.3618 9.43628 16.8347 8.90918 16.1868 8.90918H8.28682C7.63892 8.90918 7.11182 9.43628 7.11182 10.0842C7.11182 10.7321 7.63892 11.2592 8.28682 11.2592ZM8.28682 9.65918H16.1868C16.4212 9.65918 16.6118 9.84983 16.6118 10.0842C16.6118 10.3185 16.4212 10.5092 16.1868 10.5092H8.28682C8.05247 10.5092 7.86182 10.3185 7.86182 10.0842C7.86182 9.84983 8.05247 9.65918 8.28682 9.65918Z" fill="#A4A4A4"/>
<path d="M8.28682 16.2201H16.1868C16.8347 16.2201 17.3618 15.693 17.3618 15.0451C17.3618 14.3972 16.8347 13.8701 16.1868 13.8701H8.28682C7.63892 13.8701 7.11182 14.3972 7.11182 15.0451C7.11182 15.693 7.63892 16.2201 8.28682 16.2201ZM8.28682 14.6201H16.1868C16.4212 14.6201 16.6118 14.8108 16.6118 15.0451C16.6118 15.2795 16.4212 15.4701 16.1868 15.4701H8.28682C8.05247 15.4701 7.86182 15.2795 7.86182 15.0451C7.86182 14.8108 8.05247 14.6201 8.28682 14.6201Z" fill="#A4A4A4"/>
<path d="M8.28682 21.1801H16.1868C16.8347 21.1801 17.3618 20.653 17.3618 20.0051C17.3618 19.3572 16.8347 18.8301 16.1868 18.8301H8.28682C7.63892 18.8301 7.11182 19.3572 7.11182 20.0051C7.11182 20.653 7.63892 21.1801 8.28682 21.1801ZM8.28682 19.5801H16.1868C16.4212 19.5801 16.6118 19.7707 16.6118 20.0051C16.6118 20.2394 16.4212 20.4301 16.1868 20.4301H8.28682C8.05247 20.4301 7.86182 20.2394 7.86182 20.0051C7.86182 19.7707 8.05247 19.5801 8.28682 19.5801Z" fill="#A4A4A4"/>
</svg>
