<svg width="28" height="23" viewBox="0 0 28 23" fill="none" xmlns="http://www.w3.org/2000/svg">
<path d="M28 2.70209C26.9703 3.14627 25.8498 3.46594 24.6956 3.59045C25.8939 2.87854 26.7913 1.75384 27.2193 0.427366C26.0949 1.09629 24.863 1.56535 23.5784 1.81374C23.0415 1.23976 22.3922 0.782506 21.6708 0.470463C20.9495 0.158421 20.1716 -0.00172214 19.3857 1.3966e-05C16.2057 1.3966e-05 13.6484 2.57759 13.6484 5.74067C13.6484 6.18485 13.7022 6.62903 13.7897 7.05638C9.02824 6.80737 4.78164 4.53264 1.95842 1.04989C1.444 1.92854 1.17442 2.92898 1.17774 3.94714C1.17774 5.9392 2.1906 7.69572 3.73513 8.72877C2.82492 8.69293 1.93602 8.44274 1.14073 7.99857V8.06924C1.14073 10.8588 3.11261 13.1705 5.74066 13.7022C5.24721 13.8304 4.7396 13.896 4.22978 13.8974C3.85627 13.8974 3.50294 13.8604 3.14626 13.8099C3.87309 16.0846 5.98966 17.7368 8.51003 17.7907C6.53816 19.3352 4.06826 20.2437 1.38637 20.2437C0.90518 20.2437 0.461002 20.2269 0 20.1731C2.54393 21.8051 5.56231 22.7473 8.81288 22.7473C19.3655 22.7473 25.1398 14.0051 25.1398 6.41703C25.1398 6.16802 25.1398 5.91901 25.1229 5.67001C26.2401 4.85232 27.2193 3.83946 28 2.70209Z" fill="white"/>
</svg>
