<svg width="62" height="64" viewBox="0 0 62 64" fill="none" xmlns="http://www.w3.org/2000/svg">
<path d="M31 8C31.2652 8 31.5196 7.89464 31.7071 7.70711C31.8946 7.51957 32 7.26522 32 7V1C32 0.734784 31.8946 0.48043 31.7071 0.292893C31.5196 0.105357 31.2652 0 31 0C30.7348 0 30.4804 0.105357 30.2929 0.292893C30.1054 0.48043 30 0.734784 30 1V7C30 7.26522 30.1054 7.51957 30.2929 7.70711C30.4804 7.89464 30.7348 8 31 8Z" fill="url(#paint0_linear)"/>
<path d="M13.293 14.7074C13.4816 14.8896 13.7342 14.9904 13.9964 14.9881C14.2586 14.9858 14.5094 14.8806 14.6948 14.6952C14.8802 14.5098 14.9854 14.259 14.9877 13.9968C14.9899 13.7346 14.8892 13.482 14.707 13.2934L9.70699 8.29341C9.51839 8.11125 9.26579 8.01045 9.00359 8.01273C8.7414 8.01501 8.49058 8.12018 8.30518 8.30559C8.11977 8.491 8.0146 8.74181 8.01232 9.00401C8.01004 9.2662 8.11084 9.5188 8.293 9.70741L13.293 14.7074Z" fill="url(#paint1_linear)"/>
<path d="M48 15.0004C48.2652 15.0003 48.5195 14.895 48.707 14.7074L53.707 9.70741C53.8892 9.5188 53.99 9.2662 53.9877 9.00401C53.9854 8.74181 53.8802 8.491 53.6948 8.30559C53.5094 8.12018 53.2586 8.01501 52.9964 8.01273C52.7342 8.01045 52.4816 8.11125 52.293 8.29341L47.293 13.2934C47.1532 13.4333 47.058 13.6114 47.0194 13.8054C46.9808 13.9993 47.0007 14.2004 47.0763 14.3831C47.152 14.5658 47.2801 14.7219 47.4445 14.8318C47.609 14.9417 47.8023 15.0004 48 15.0004Z" fill="url(#paint2_linear)"/>
<path d="M13.293 47.2934L8.29301 52.2934C8.1975 52.3857 8.12131 52.496 8.0689 52.618C8.01649 52.74 7.98891 52.8712 7.98775 53.004C7.9866 53.1368 8.0119 53.2685 8.06218 53.3914C8.11246 53.5143 8.18672 53.6259 8.28061 53.7198C8.3745 53.8137 8.48615 53.8879 8.60905 53.9382C8.73195 53.9885 8.86363 54.0138 8.99641 54.0127C9.12919 54.0115 9.26041 53.9839 9.38241 53.9315C9.50441 53.8791 9.61476 53.8029 9.70701 53.7074L14.707 48.7074C14.8892 48.5188 14.99 48.2662 14.9877 48.004C14.9854 47.7418 14.8802 47.491 14.6948 47.3056C14.5094 47.1202 14.2586 47.015 13.9964 47.0127C13.7342 47.0105 13.4816 47.1112 13.293 47.2934Z" fill="url(#paint3_linear)"/>
<path d="M48.707 47.2934C48.5184 47.1112 48.2658 47.0105 48.0036 47.0127C47.7414 47.015 47.4906 47.1202 47.3052 47.3056C47.1198 47.491 47.0146 47.7418 47.0123 48.004C47.01 48.2662 47.1108 48.5188 47.293 48.7074L52.293 53.7074C52.4816 53.8896 52.7342 53.9904 52.9964 53.9881C53.2586 53.9858 53.5094 53.8806 53.6948 53.6952C53.8802 53.5098 53.9854 53.259 53.9877 52.9968C53.9899 52.7346 53.8892 52.482 53.707 52.2934L48.707 47.2934Z" fill="url(#paint4_linear)"/>
<path d="M1 32H7C7.26522 32 7.51957 31.8946 7.70711 31.7071C7.89464 31.5196 8 31.2652 8 31C8 30.7348 7.89464 30.4804 7.70711 30.2929C7.51957 30.1054 7.26522 30 7 30H1C0.734784 30 0.48043 30.1054 0.292893 30.2929C0.105357 30.4804 0 30.7348 0 31C0 31.2652 0.105357 31.5196 0.292893 31.7071C0.48043 31.8946 0.734784 32 1 32Z" fill="url(#paint5_linear)"/>
<path d="M55 32.0107H61C61.2652 32.0107 61.5196 31.9054 61.7071 31.7178C61.8946 31.5303 62 31.276 62 31.0107C62 30.7455 61.8946 30.4912 61.7071 30.3036C61.5196 30.1161 61.2652 30.0107 61 30.0107H55C54.7348 30.0107 54.4804 30.1161 54.2929 30.3036C54.1054 30.4912 54 30.7455 54 31.0107C54 31.276 54.1054 31.5303 54.2929 31.7178C54.4804 31.9054 54.7348 32.0107 55 32.0107Z" fill="url(#paint6_linear)"/>
<path d="M21.415 49.6905C21.9018 49.9566 22.3067 50.3506 22.586 50.8299C22.8653 51.3093 23.0085 51.8558 23 52.4105V54.1845C22.3972 54.3949 21.8778 54.7933 21.5182 55.321C21.1586 55.8486 20.9778 56.4778 21.0025 57.1158C21.0271 57.7539 21.2558 58.3672 21.655 58.8656C22.0542 59.364 22.6027 59.7211 23.22 59.8845C23.0351 60.3392 22.9651 60.8325 23.016 61.3208C23.067 61.809 23.2373 62.2772 23.5121 62.684C23.7869 63.0908 24.1576 63.4237 24.5915 63.6533C25.0254 63.8829 25.5091 64.0021 26 64.0005H36C36.4909 64.0021 36.9747 63.8829 37.4086 63.6533C37.8425 63.4237 38.2132 63.0908 38.4879 62.684C38.7627 62.2772 38.9331 61.809 38.984 61.3208C39.0349 60.8325 38.9649 60.3392 38.78 59.8845C39.3973 59.7211 39.9458 59.364 40.345 58.8656C40.7442 58.3672 40.9729 57.7539 40.9975 57.1158C41.0222 56.4778 40.8414 55.8486 40.4818 55.321C40.1223 54.7933 39.6029 54.3949 39 54.1845V52.3305C38.9962 51.784 39.1436 51.2471 39.426 50.7793C39.7084 50.3114 40.1147 49.9307 40.6 49.6795C44.0385 47.9208 46.9234 45.2451 48.9354 41.9484C50.9475 38.6517 52.0081 34.8626 52 31.0005C52.0032 30.2992 51.9698 29.5983 51.9 28.9005C51.8879 28.7687 51.8497 28.6406 51.7877 28.5236C51.7257 28.4067 51.6411 28.3032 51.5387 28.2192C51.4364 28.1353 51.3185 28.0724 51.1917 28.0344C51.0649 27.9963 50.9319 27.9838 50.8002 27.9976C50.6686 28.0113 50.541 28.0511 50.4248 28.1146C50.3086 28.178 50.2062 28.2639 50.1235 28.3672C50.0408 28.4706 49.9794 28.5893 49.9429 28.7166C49.9065 28.8438 49.8956 28.977 49.911 29.1085C49.9736 29.7372 50.0033 30.3687 50 31.0005C50.0066 34.4951 49.0462 37.9234 47.2252 40.9061C45.4042 43.8888 42.7935 46.3095 39.682 47.9005C38.8699 48.3197 38.1895 48.9554 37.7162 49.7372C37.2429 50.519 36.995 51.4165 37 52.3305V54.0005H35V42.0005H38C38.9889 42.0005 39.9556 41.7072 40.7779 41.1578C41.6001 40.6084 42.241 39.8275 42.6194 38.9139C42.9978 38.0003 43.0969 36.9949 42.9039 36.025C42.711 35.0551 42.2348 34.1642 41.5355 33.4649C40.8363 32.7657 39.9454 32.2895 38.9755 32.0965C38.0056 31.9036 37.0002 32.0026 36.0866 32.3811C35.173 32.7595 34.3921 33.4004 33.8427 34.2226C33.2932 35.0449 33 36.0116 33 37.0005V40.0005H29V37.0005C29 36.0116 28.7068 35.0449 28.1574 34.2226C27.6079 33.4004 26.8271 32.7595 25.9134 32.3811C24.9998 32.0026 23.9945 31.9036 23.0246 32.0965C22.0546 32.2895 21.1637 32.7657 20.4645 33.4649C19.7652 34.1642 19.289 35.0551 19.0961 36.025C18.9032 36.9949 19.0022 38.0003 19.3806 38.9139C19.759 39.8275 20.3999 40.6084 21.2222 41.1578C22.0444 41.7072 23.0111 42.0005 24 42.0005H27V54.0005H25V52.4105C25.007 51.488 24.7617 50.5812 24.2905 49.788C23.8194 48.9949 23.1404 48.3456 22.327 47.9105C19.6799 46.5537 17.3884 44.5943 15.6369 42.1901C13.8854 39.7859 12.7228 37.0041 12.2427 34.0686C11.7627 31.133 11.9786 28.1257 12.873 25.2889C13.7675 22.452 15.3155 19.8647 17.3925 17.7354C19.4695 15.6061 22.0174 13.9941 24.8311 13.0294C27.6449 12.0646 30.6458 11.7739 33.5924 12.1808C36.539 12.5876 39.3489 13.6806 41.7959 15.3718C44.243 17.0629 46.2587 19.305 47.681 21.9175C47.7416 22.0365 47.8254 22.1422 47.9275 22.2283C48.0296 22.3144 48.1479 22.3792 48.2755 22.4188C48.403 22.4585 48.5372 22.4721 48.6701 22.4591C48.803 22.446 48.932 22.4064 49.0494 22.3427C49.1668 22.2789 49.2702 22.1923 49.3535 22.088C49.4369 21.9836 49.4985 21.8636 49.5347 21.7351C49.5709 21.6065 49.5811 21.472 49.5644 21.3395C49.5478 21.207 49.5048 21.0791 49.438 20.9635C47.5571 17.4589 44.7114 14.5666 41.2378 12.6292C37.7642 10.6918 33.8081 9.79028 29.838 10.0315C25.2305 10.2844 20.8345 12.0479 17.3296 15.0494C13.8246 18.0509 11.4059 22.1233 10.4473 26.6371C9.48858 31.1509 10.0433 35.8548 12.0258 40.0218C14.0082 44.1887 17.308 47.5867 21.415 49.6905ZM35 37.0005C35 36.4071 35.176 35.8271 35.5056 35.3338C35.8352 34.8404 36.3038 34.4559 36.852 34.2288C37.4001 34.0018 38.0033 33.9424 38.5853 34.0581C39.1672 34.1739 39.7018 34.4596 40.1213 34.8792C40.5409 35.2987 40.8266 35.8333 40.9424 36.4152C41.0581 36.9971 40.9987 37.6003 40.7716 38.1485C40.5446 38.6967 40.1601 39.1652 39.6667 39.4949C39.1734 39.8245 38.5933 40.0005 38 40.0005H35V37.0005ZM36 62.0005H26C25.7348 62.0005 25.4804 61.8951 25.2929 61.7076C25.1054 61.52 25 61.2657 25 61.0005C25 60.7353 25.1054 60.4809 25.2929 60.2934C25.4804 60.1058 25.7348 60.0005 26 60.0005H36C36.2652 60.0005 36.5196 60.1058 36.7071 60.2934C36.8946 60.4809 37 60.7353 37 61.0005C37 61.2657 36.8946 61.52 36.7071 61.7076C36.5196 61.8951 36.2652 62.0005 36 62.0005ZM24 40.0005C23.4067 40.0005 22.8266 39.8245 22.3333 39.4949C21.8399 39.1652 21.4554 38.6967 21.2284 38.1485C21.0013 37.6003 20.9419 36.9971 21.0576 36.4152C21.1734 35.8333 21.4591 35.2987 21.8787 34.8792C22.2982 34.4596 22.8328 34.1739 23.4147 34.0581C23.9967 33.9424 24.5999 34.0018 25.1481 34.2288C25.6962 34.4559 26.1648 34.8404 26.4944 35.3338C26.8241 35.8271 27 36.4071 27 37.0005V40.0005H24ZM29 42.0005H33V54.0005H29V42.0005ZM38 56.0005C38.2652 56.0005 38.5196 56.1058 38.7071 56.2934C38.8946 56.4809 39 56.7353 39 57.0005C39 57.2657 38.8946 57.52 38.7071 57.7076C38.5196 57.8951 38.2652 58.0005 38 58.0005H24C23.7348 58.0005 23.4804 57.8951 23.2929 57.7076C23.1054 57.52 23 57.2657 23 57.0005C23 56.7353 23.1054 56.4809 23.2929 56.2934C23.4804 56.1058 23.7348 56.0005 24 56.0005H38Z" fill="url(#paint7_linear)"/>
<path d="M50.38 24.0799C50.3233 24.0511 50.2626 24.0309 50.2 24.0199C50.0546 23.9889 49.904 23.9909 49.7595 24.0259C49.6149 24.0609 49.4801 24.1279 49.3649 24.2219C49.2497 24.316 49.1571 24.4347 49.0939 24.5694C49.0308 24.704 48.9987 24.8512 49 24.9999C49.0016 25.1305 49.0288 25.2596 49.08 25.3799C49.1283 25.5023 49.1996 25.6143 49.29 25.7099C49.4816 25.8926 49.7352 25.9962 50 25.9999C50.2651 25.9979 50.5193 25.8941 50.71 25.7099C50.8959 25.5203 51.0001 25.2654 51.0001 24.9999C51.0001 24.7344 50.8959 24.4794 50.71 24.2899C50.6623 24.2471 50.6122 24.207 50.56 24.1699C50.5042 24.1322 50.4437 24.1019 50.38 24.0799Z" fill="url(#paint8_linear)"/>
<defs>
<linearGradient id="paint0_linear" x1="30" y1="4" x2="32" y2="4" gradientUnits="userSpaceOnUse">
<stop stop-color="#FEB78B"/>
<stop offset="1" stop-color="#DE6463"/>
</linearGradient>
<linearGradient id="paint1_linear" x1="70.7911" y1="88.2301" x2="119.619" y2="88.2301" gradientUnits="userSpaceOnUse">
<stop stop-color="#FEB78B"/>
<stop offset="1" stop-color="#DE6463"/>
</linearGradient>
<linearGradient id="paint2_linear" x1="382.4" y1="88.3714" x2="431.313" y2="88.3714" gradientUnits="userSpaceOnUse">
<stop stop-color="#FEB78B"/>
<stop offset="1" stop-color="#DE6463"/>
</linearGradient>
<linearGradient id="paint3_linear" x1="70.9877" y1="400.513" x2="119.988" y2="400.513" gradientUnits="userSpaceOnUse">
<stop stop-color="#FEB78B"/>
<stop offset="1" stop-color="#DE6463"/>
</linearGradient>
<linearGradient id="paint4_linear" x1="381.833" y1="399.272" x2="430.661" y2="399.272" gradientUnits="userSpaceOnUse">
<stop stop-color="#FEB78B"/>
<stop offset="1" stop-color="#DE6463"/>
</linearGradient>
<linearGradient id="paint5_linear" x1="8" y1="92" x2="72" y2="92" gradientUnits="userSpaceOnUse">
<stop stop-color="#FEB78B"/>
<stop offset="1" stop-color="#DE6463"/>
</linearGradient>
<linearGradient id="paint6_linear" x1="494" y1="92.0328" x2="558" y2="92.0328" gradientUnits="userSpaceOnUse">
<stop stop-color="#FEB78B"/>
<stop offset="1" stop-color="#DE6463"/>
</linearGradient>
<linearGradient id="paint7_linear" x1="471.986" y1="2008.26" x2="2236.58" y2="2008.26" gradientUnits="userSpaceOnUse">
<stop stop-color="#FEB78B"/>
<stop offset="1" stop-color="#DE6463"/>
</linearGradient>
<linearGradient id="paint8_linear" x1="149.005" y1="74.0456" x2="153.005" y2="74.0456" gradientUnits="userSpaceOnUse">
<stop stop-color="#FEB78B"/>
<stop offset="1" stop-color="#DE6463"/>
</linearGradient>
</defs>
</svg>
