<svg width="10" height="10" viewBox="0 0 10 10" fill="none" xmlns="http://www.w3.org/2000/svg">
<path d="M9.82126 8.65957C9.61755 9.27746 8.80905 9.78992 8.16415 9.93957C7.72296 10.0405 7.14667 10.121 5.20669 9.25705C2.72525 8.15278 1.12725 5.44426 1.00271 5.26853C0.883438 5.0928 0 3.83434 0 2.53279C0 1.23125 0.615346 0.597485 0.863384 0.325386C1.06709 0.102038 1.40379 0 1.72677 0C1.83126 0 1.9252 0.00566881 2.00964 0.0102038C2.25768 0.0215413 2.38222 0.037414 2.54582 0.458035C2.74953 0.985227 3.24561 2.28677 3.30471 2.42055C3.36488 2.55433 3.42504 2.73573 3.3406 2.91147C3.26144 3.09287 3.19178 3.17336 3.06723 3.32755C2.94268 3.48174 2.82447 3.59965 2.69992 3.76518C2.58593 3.90916 2.45716 4.06335 2.60071 4.32978C2.74425 4.59055 3.24033 5.46013 3.97072 6.15852C4.91327 7.05985 5.67744 7.34782 5.95081 7.47027C6.15451 7.56097 6.39727 7.53943 6.5461 7.36936C6.73503 7.15055 6.96829 6.78775 7.20577 6.43062C7.37465 6.17439 7.58786 6.14265 7.81162 6.23335C8.0396 6.31838 9.24602 6.95895 9.49406 7.09159C9.7421 7.22538 9.9057 7.28887 9.96586 7.40111C10.025 7.51335 10.025 8.04054 9.82126 8.65957Z" fill="#FAFAFA"/>
</svg>
